<ttFont>
          <CharString index="0">
            rmoveto
            -5 4 -3 9 5 3 1 2 2 vhcurveto
            176 121 rlineto
            4 3 2 4 5 vvcurveto
            13 -12 0 -45 11 vhcurveto
            -11 -3 1 -27 -23 hvcurveto
            -106 -117 rlineto
            -3 -3 -2 -3 -3 vvcurveto
            endchar
          </CharString>
          <CharString index="1">
            rmoveto
            -105 callsubr
            195 hmoveto
            -105 callsubr
            endchar
          </CharString>
          <CharString index="2">
            -29 23 -19 31 -101 callsubr
            vhcurveto
            return
          </CharString>
          <CharString index="3">
            -94 callsubr
            rlineto
            -5 hlineto
            -15 -11 6 12 -9 hvcurveto
            -9 13 -10 19 -10 25 -211 505 rcurveline
            -26 hlineto
            -209 -503 -10 -25 -10 -19 -10 -14 rlinecurve
            -13 -9 -11 -6 -13 hhcurveto
            -4 hlineto
            -62 callsubr
            return
          </CharString>
          <CharString index="4">
            35 vstem
            73 569 rmoveto
            11 1 8 -11 -11 vvcurveto
            -349 vlineto
            -137 91 -72 161 129 94 84 115 vhcurveto
            360 vlineto
            12 8 9 12 -1 vhcurveto
            -34 callsubr
            11 1 7 -9 -13 vvcurveto
            -350 vlineto
            -101 -72 -76 -98 -112 -65 66 112 vhcurveto
            350 vlineto
            12 8 9 12 -1 vhcurveto
            49 -36 callsubr
            -219 -30 vlineto
            return
          </CharString>
          <CharString index="5">
            -28 callsubr
            -80 72 79 -13 73 hhcurveto
            71 81 13 80 72 hvcurveto
            -97 callsubr
            -43 callsubr
            return
          </CharString>
          <CharString index="6">
            31 23 19 29 28 -25 21 -29 -31 -23 -21 -28 return
          </CharString>
          <CharString index="7">
            -92 47 -50 75 73 50 47 95 93 -51 49 -72 -71 -51 -47 -95 vhcurveto
            64 hmoveto
            93 23 31 35 35 24 -27 -97 -95 -24 -28 -35 -34 -24 26 97 vhcurveto
            return
          </CharString>
          <CharString index="8">
            -1 -13 -1 -12 -2 -12 rrcurveto
            81 callsubr
            -37 -96 callsubr
            246 vlineto
            99 -59 42 -115 -109 -48 -39 -52 -31 15 -18 29 28 20 12 19 vhcurveto
            19 -10 2 17 vvcurveto
            return
          </CharString>
          <CharString index="9">
            44 callsubr
            -141 62 -78 141 74 71 38 65 27 vhcurveto
            -23 17 rlineto
            -43 -19 -44 -44 -72 hhcurveto
            -84 1 -42 67 121 vvcurveto
            288 29 hlineto
            119 -3 -70 70 -105 hhcurveto
            -132 -69 31 callsubr
            28 rmoveto
            90 29 76 80 68 25 -44 -89 -27 -8 -6 -12 vhcurveto
            return
          </CharString>
          <CharString index="10">
            39 43 27 73 100 vvcurveto
            100 -27 73 -39 43 vhcurveto
            80 -72 -81 12 -71 hhcurveto
            -73 -79 -12 -80 -72 hvcurveto
            -39 -43 -27 -73 -100 vvcurveto
            102 hmoveto
            202 60 79 128 128 60 -79 -202 return
          </CharString>
          <CharString index="11">
            -66 callsubr
            6 13 hvcurveto
            return
          </CharString>
          <CharString index="12">
            44 30 66 64 74 vvcurveto
            53 -23 30 -47 -31 -27 -25 -28 -17 5 -26 27 vhcurveto
            return
          </CharString>
          <CharString index="13">
            153 35 callsubr
            -48 -3 -33 -3 10 38 15 35 rlinecurve
            47 112 rlineto
            232 hlineto
            49 -118 13 -31 7 -35 -40 3 rlinecurve
            -49 15 callsubr
            265 29 vlineto
            -33 -2 return
          </CharString>
          <CharString index="14">
            rmoveto
            -95 callsubr
            return
          </CharString>
          <CharString index="15">
            25 16 19 59 60 28 -26 -61 vhcurveto
            -58 vlineto
            -187 -80 -48 -105 hvcurveto
            91 7 rmoveto
            84 47 35 129 vhcurveto
            -58 vlineto
            -84 -48 -58 -60 -43 -25 30 51 vhcurveto
            return
          </CharString>
          <CharString index="16">
            -35 28 -22 37 37 28 22 35 36 -28 22 -37 -37 -28 -23 -35 vhcurveto
            return
          </CharString>
          <CharString index="17">
            35 211 rmoveto
            -135 66 -86 135 135 66 86 135 132 -66 87 -135 -135 -66 -87 -132 vhcurveto
            -6 callsubr
            80 30 -59 -135 -133 -30 -59 -80 -80 -30 59 133 vhcurveto
            return
          </CharString>
          <CharString index="18">
            rmoveto
            18 vlineto
            -29 -1 rlineto
            -9 -1 -6 10 9 vvcurveto
            244 -25 vlineto
            -7 -7 -8 -8 -9 -7 -15 -12 -21 -13 -27 -7 6 -25 rcurveline
            30 11 rlineto
            11 4 6 -6 -9 vvcurveto
            -165 -37 callsubr
            -18 vlineto
            return
          </CharString>
          <CharString index="19">
            260 35 callsubr
            -39 -51 callsubr
            499 vlineto
            12 29 callsubr
            32 callsubr
            -210 80 callsubr
            13 1 6 -68 callsubr
            return
          </CharString>
          <CharString index="20">
            41 43 38 23 9 vvcurveto
            3 -1 5 -8 -7 -13 -7 -5 -8 vhcurveto
            -119 -74 -119 74 rlineto
            5 -8 -13 7 -7 hhcurveto
            -8 -1 -5 -3 hvcurveto
            endchar
          </CharString>
          <CharString index="21">
            -41 -1 -34 -5 -12 vhcurveto
            81 callsubr
            -36 -96 callsubr
            377 -146 -26 vlineto
            47 2 rlineto
            8 4 -7 -14 hvcurveto
            -164 vlineto
            return
          </CharString>
          <CharString index="22">
            -97 -48 -54 -91 vhcurveto
            -140 -12 callsubr
            256 94 vlineto
            41 35 -17 callsubr
            -32 -37 -44 vhcurveto
            -94 230 hlineto
            9 4 5 8 vhcurveto
            107 hlineto
            99 43 -37 -89 hvcurveto
            27 return
          </CharString>
          <CharString index="23">
            hstem
            45 102 376 102 vstem
            -102 callsubr
            return
          </CharString>
          <CharString index="24">
            rmoveto
            -75 callsubr
            -76 callsubr
            return
          </CharString>
          <CharString index="25">
            -28 6 42 -41 hhcurveto
            -19 -20 -16 -35 hvcurveto
            -32 3 28 -17 35 hhcurveto
            53 33 28 79 32 hvcurveto
            211 509 rlineto
            13 6 8 6 11 hhcurveto
            2 hlineto
            41 61 callsubr
            -155 -26 vlineto
            47 70 callsubr
            2 -7 -8 -3 hvcurveto
            -113 -272 -122 270 rlineto
            8 -4 7 9 9 hhcurveto
            45 61 callsubr
            -219 -26 vlineto
            return
          </CharString>
          <CharString index="26">
            61 6 -43 -85 vhcurveto
            -227 -48 callsubr
            -46 2 rlineto
            -26 195 26 vlineto
            -37 -96 callsubr
            245 vlineto
            100 -39 42 -95 -69 return
          </CharString>
          <CharString index="27">
            hstem
            35 91 203 85 vstem
            -98 callsubr
            return
          </CharString>
          <CharString index="28">
            56 274 rmoveto
            -157 128 -128 157 157 129 128 157 157 -129 129 -157 -157 -128 -129 -157 vhcurveto
            32 hmoveto
            141 111 115 141 141 112 -115 -141 -141 -112 -114 -141 -141 -111 114 141 vhcurveto
            return
          </CharString>
          <CharString index="29">
            85 callsubr
            198 86 vstem
            230 hmoveto
            26 vlineto
            -46 56 callsubr
            115 51 75 80 -81 callsubr
            -54 -38 -61 -27 vhcurveto
            return
          </CharString>
          <CharString index="30">
            73 -70 -39 callsubr
            170 451 -89 callsubr
            return
          </CharString>
          <CharString index="31">
            8 -38 callsubr
            -13 -3 callsubr
            2 callsubr
            return
          </CharString>
          <CharString index="32">
            26 vlineto
            -36 -96 callsubr
            377 -135 -26 vlineto
            71 callsubr
            return
          </CharString>
          <CharString index="33">
            rmoveto
            28 callsubr
            23 49 callsubr
            16 -5 callsubr
            16 hvcurveto
            24 24 23 24 rlineto
            -87 callsubr
          </CharString>
          <CharString index="34">
            -93 callsubr
            hintmask 11010000
            -67 callsubr
            endchar
          </CharString>
          <CharString index="35">
            40 85 -43 44 hhcurveto
            37 27 42 49 hvcurveto
            -20 hlineto
            -24 -14 -18 -19 vhcurveto
            return
          </CharString>
          <CharString index="36">
            hstem
            84 callsubr
            91 vstem
            -90 callsubr
            return
          </CharString>
          <CharString index="37">
            -85 callsubr
            155 hlineto
            -1 -3 -6 0 -8 hhcurveto
            return
          </CharString>
          <CharString index="38">
            48 203 rmoveto
            5 -16 3 -42 -49 vvcurveto
            -39 -1 -28 -3 -16 vhcurveto
            1 1 25 4 8 hhcurveto
            19 21 -4 -11 39 hvcurveto
            -11 37 29 -2 37 hhcurveto
            102 87 72 106 79 -40 45 -101 41 hvcurveto
            -92 37 rlineto
            -53 21 -33 36 45 vvcurveto
            69 48 39 68 vhcurveto
            return
          </CharString>
          <CharString index="39">
            -11 -11 vvcurveto
            -499 -61 callsubr
            return
          </CharString>
          <CharString index="40">
            20 16 -6 -23 -33 -38 -53 -31 -29 hvcurveto
            return
          </CharString>
          <CharString index="41">
            -2 rlineto
            -9 -4 return
          </CharString>
          <CharString index="42">
            vlineto
            -13 -3 callsubr
            -1 vhcurveto
            -32 2 rlineto
            -26 206 26 vlineto
            -62 -66 callsubr
            7 13 hvcurveto
            238 vlineto
            -35 19 40 -18 55 hhcurveto
            131 59 74 145 141 -55 80 -117 -67 -46 -34 -56 -19 hvcurveto
            return
          </CharString>
          <CharString index="43">
            44 10 rmoveto
            4 6 10 2 13 hhcurveto
            7 9 -1 -3 11 hvcurveto
            34 -9 rlineto
            -7 24 27 -6 27 hhcurveto
            96 70 47 89 56 -22 37 -71 20 hvcurveto
            -96 27 rlineto
            -41 11 -21 22 33 vvcurveto
            40 29 31 52 vhcurveto
            return
          </CharString>
          <CharString index="44">
            -86 86 hintmask 11100000
            220 hmoveto
            -75 callsubr
            hintmask 11010000
            -76 callsubr
            return
          </CharString>
          <CharString index="45">
            -26 59 callsubr
            279 488 rmoveto
            107 -252 rlineto
            -212 hlineto
            return
          </CharString>
          <CharString index="46">
            vlineto
            -15 -6 -27 callsubr
            return
          </CharString>
          <CharString index="47">
            43 12 33 23 39 vvcurveto
            37 -40 21 -53 -55 -38 -17 -35 -17 13 -12 19 15 16 8 13 vhcurveto
            3 -1 2 3 vvcurveto
            4 vlineto
            19 10 11 21 16 13 -16 -24 -39 -37 -29 -37 vhcurveto
            -17 vlineto
            return
          </CharString>
          <CharString index="48">
            76 41 -51 -50 hvcurveto
            22 hlineto
            6 114 rlineto
            -5 -8 -12 -3 -8 hhcurveto
            -7 -8 1 3 -8 hvcurveto
            -28 7 rlineto
            5 -19 -22 6 -28 hhcurveto
            -96 -57 -52 -72 -57 34 -39 52 -15 hvcurveto
            96 -27 rlineto
            return
          </CharString>
          <CharString index="49">
            627 rmoveto
            -7 6 -3 4 -3 vhcurveto
            163 -112 rlineto
            -3 3 10 -6 7 hhcurveto
            9 4 3 5 5 -10 9 -8 9 hvcurveto
            -95 104 rlineto
            19 -17 -4 6 -15 hhcurveto
            -24 -33 -18 -8 hvcurveto
            return
          </CharString>
          <CharString index="50">
            rmoveto
            -9 5 -8 8 8 5 8 9 vhcurveto
            20 174 rlineto
            25 -13 15 -20 -20 -13 -15 -25 vhcurveto
            return
          </CharString>
          <CharString index="51">
            130 vstem
            60 47 rmoveto
            -91 callsubr
            return
          </CharString>
          <CharString index="52">
            56 -26 callsubr
            -228 vlineto
            -112 37 -46 89 75 56 33 64 27 vhcurveto
            return
          </CharString>
          <CharString index="53">
            -117 -56 -71 -81 -52 -9 41 84 vhcurveto
            272 -135 -26 vlineto
            return
          </CharString>
          <CharString index="54">
            27 105 rmoveto
            -73 44 -37 88 59 47 24 57 29 vhcurveto
            -2 -39 rlineto
            return
          </CharString>
          <CharString index="55">
            29 -36 callsubr
            -152 -30 vlineto
            52 2 rlineto
            12 -1 -12 -8 -4 hvcurveto
            -131 -232 -137 228 -7 11 -1 14 15 -1 rlinecurve
            53 -36 callsubr
            -221 -30 vlineto
            endchar
          </CharString>
          <CharString index="56">
            86 callsubr
            -7 7 15 hvcurveto
            return
          </CharString>
          <CharString index="57">
            3 callsubr
            hintmask 11101110
            -72 callsubr
            hintmask 11010110
            -49 callsubr
          </CharString>
          <CharString index="58">
            -39 -87 43 -43 hhcurveto
            -37 -27 -42 -49 hvcurveto
            endchar
          </CharString>
          <CharString index="59">
            vlineto
            -11 -3 callsubr
            -2 vhcurveto
            return
          </CharString>
          <CharString index="60">
            486 rmoveto
            -3 1 -5 8 7 13 7 5 8 vhcurveto
            119 74 119 -74 rlineto
            -5 8 13 -7 7 hhcurveto
            8 1 5 3 9 -38 23 -41 43 hvcurveto
            return
          </CharString>
          <CharString index="61">
            -13 -9 4 25 33 38 53 31 29 hvcurveto
            -19 11 rlineto
            -44 -30 -66 -64 -74 vvcurveto
            return
          </CharString>
          <CharString index="62">
            -48 callsubr
            -37 -9 callsubr
          </CharString>
          <CharString index="63">
            -11 -93 callsubr
            hintmask 11100100
            -67 callsubr
            endchar
          </CharString>
          <CharString index="64">
            -203 -60 -79 -128 -128 -60 79 203 vhcurveto
            return
          </CharString>
          <CharString index="65">
            -51 -5 36 -10 -21 231 27 32 140 -27 27 return
          </CharString>
          <CharString index="66">
            270 hmoveto
            29 vlineto
            -49 -51 callsubr
            return
          </CharString>
          <CharString index="67">
            -499 13 callsubr
            -12 vhcurveto
            -40 3 rlineto
            -30 vlineto
            return
          </CharString>
          <CharString index="68">
            rmoveto
            466 655 -34 20 -465 -652 rlineto
            return
          </CharString>
          <CharString index="69">
            -2 4 -7 -11 vvcurveto
            -333 vlineto
            return
          </CharString>
          <CharString index="70">
            vlineto
            -11 -3 -7 -9 vhcurveto
            -41 1 rlineto
            return
          </CharString>
          <CharString index="71">
            -2 rlineto
            30 return
          </CharString>
          <CharString index="72">
            9 4 4 8 vhcurveto
            45 hlineto
            165 63 -75 -196 -197 -63 -73 -165 hvcurveto
            -45 -12 callsubr
            endchar
          </CharString>
          <CharString index="73">
            32 callsubr
            -161 51 callsubr
            return
          </CharString>
          <CharString index="74">
            -53 23 -30 47 31 27 25 28 17 -5 26 -27 vhcurveto
            -14 hlineto
            return
          </CharString>
          <CharString index="75">
            hhcurveto
            52 hlineto
            208 139 -21 hlineto
            -76 -45 -38 -84 vhcurveto
            -105 hlineto
            245 376 rlineto
            19 -187 vlineto
            -51 hlineto
            return
          </CharString>
          <CharString index="76">
            vvcurveto
            8 -2 6 -3 5 vhcurveto
            -13 18 rlineto
            -9 13 -9 18 32 vvcurveto
            -7 15 13 -2 13 23 21 7 24 hhcurveto
            return
          </CharString>
          <CharString index="77">
            26 callsubr
            175 16 rmoveto
            36 hlineto
            -98 171 98 30 callsubr
            -149 72 callsubr
            return
          </CharString>
          <CharString index="78">
            24 21 -7 23 hhcurveto
            13 13 2 7 15 hvcurveto
            -32 -9 -18 -9 -13 vhcurveto
            -13 -18 rlineto
            -3 -5 -2 -6 -8 vvcurveto
            return
          </CharString>
          <CharString index="79">
            45 299 rmoveto
            -100 27 -73 39 -43 vhcurveto
            return
          </CharString>
          <CharString index="80">
            -24 callsubr
            -29 vlineto
            return
          </CharString>
          <CharString index="81">
            396 -25 callsubr
            return
          </CharString>
          <CharString index="82">
            87 callsubr
            -7 -13 hvcurveto
            return
          </CharString>
          <CharString index="83">
            -7 -13 vhcurveto
            -39 2 rlineto
            return
          </CharString>
          <CharString index="84">
            84 65 -58 -88 hvcurveto
            26 hlineto
            -5 15 -1 12 40 vvcurveto
            34 1 25 2 16 vhcurveto
            -3 -8 -10 -1 -11 hhcurveto
            return
          </CharString>
          <CharString index="85">
            205 96 104 195 217 -104 81 -209 hvcurveto
            -225 -30 hlineto
            78 callsubr
            return
          </CharString>
          <CharString index="86">
            36 396 rmoveto
            8 4 -5 -8 4 hvcurveto
            174 -382 -59 -136 rlineto
            -33 -13 -18 -13 -15 hhcurveto
            return
          </CharString>
          <CharString index="87">
            62 0 28 -10 -21 300 28 101 -20 163 28 return
          </CharString>
          <CharString index="88">
            2 rlineto
            -26 vlineto
            return
          </CharString>
          <CharString index="89">
            rmoveto
            104 42 73 77 74 18 -50 -144 -147 -23 -45 -76 -71 -41 47 120 vhcurveto
            endchar
          </CharString>
          <CharString index="90">
            -42 -60 hvcurveto
            27 231 -27 hlineto
            -64 return
          </CharString>
          <CharString index="91">
            24 23 25 37 vvcurveto
            49 -39 24 -61 -59 -31 -31 -27 -19 16 -11 17 16 16 10 13 vhcurveto
            return
          </CharString>
          <CharString index="92">
            35 -3 -39 29 hhcurveto
            31 9 21 29 29 -27 21 -33 -11 -10 -2 -4 -8 hvcurveto
            -26 -15 rlineto
            return
          </CharString>
          <CharString index="93">
            3 -1 5 7 vvcurveto
            15 15 11 16 21 16 -20 -36 -72 -117 -51 -16 -83 vhcurveto
            endchar
          </CharString>
          <CharString index="94">
            vhcurveto
            49 -36 callsubr
            -220 80 callsubr
            return
          </CharString>
          <CharString index="95">
            hlineto
            -8 -4 4 9 hvcurveto
            return
          </CharString>
          <CharString index="96">
            -18 145 18 vlineto
            -18 -1 rlineto
            -9 -6 9 9 hvcurveto
            33 33 39 -33 172 -32 vlineto
            return
          </CharString>
          <CharString index="97">
            42 hmoveto
            23 18 22 23 23 19 -22 -23 -23 -19 -23 -23 -23 -18 23 23 vhcurveto
            endchar
          </CharString>
          <CharString index="98">
            -19 callsubr
            endchar
          </CharString>
          <CharString index="99">
            61 -7 29 -17 -37 vvcurveto
            -33 -19 -28 -24 -24 -15 13 19 vhcurveto
            4 2 4 4 vvcurveto
            return
          </CharString>
          <CharString index="100">
            59 -23 40 -40 -53 vvcurveto
            -72 -1 -42 -48 -67 hhcurveto
            -109 -60 64 121 -15 hvcurveto
            return
          </CharString>
          <CharString index="101">
            91 -2 rmoveto
            135 30 59 80 return
          </CharString>
          <CharString index="102">
            11 -10 3 hhcurveto
            3 11 10 15 return
          </CharString>
          <CharString index="103">
            0 28 540 29 return
          </CharString>
          <CharString index="104">
            -4 -6 -9 return
          </CharString>
          <CharString index="105">
            148 171 -148 30 callsubr
            97 -171 -97 72 callsubr
            return
          </CharString>
          <CharString index="106">
            30 451 rmoveto
            -32 33 -22 68 56 50 30 51 43 -34 22 -57 7 vhcurveto
            return
          </CharString>
          <CharString index="107">
            -252 189 55 hstem
            228 189 rmoveto
            55 -206 -55 vlineto
            endchar
          </CharString>
          <CharString index="108">
            43 30 -1 -2 15 hvcurveto
            182 -27 vlineto
            return
          </CharString>
          <CharString index="109">
            vhcurveto
            -37 -19 callsubr
            return
          </CharString>
          <CharString index="110">
            rmoveto
            24 14 18 19 vhcurveto
            return
          </CharString>
          <CharString index="111">
            27 386 27 return
          </CharString>
          <CharString index="112">
            -88 -59 -52 -91 vhcurveto
            -174 hlineto
            323 546 rlineto
            24 -320 vlineto
            return
          </CharString>
          <CharString index="113">
            52 -15 18 -23 -37 vvcurveto
            -47 -31 -29 -53 -78 -67 52 75 vhcurveto
            -26 -2 return
          </CharString>
          <CharString index="114">
            20 -20 86 -86 159 45 81 hstemhm
            36 63 59 64 -48 48 -48 63 return
          </CharString>
          <CharString index="115">
            hstemhm
            27 91 -69 92 153 return
          </CharString>
          <CharString index="116">
            108 87 108 return
          </CharString>
          <CharString index="117">
            7 8 -1 -1 8 hvcurveto
            9 vlineto
            12 0 18 3 39 vhcurveto
            -33 hlineto
            return
          </CharString>
          <CharString index="118">
            -52 -10 33 189 25 166 27 return
          </CharString>
          <CharString index="119">
            100 0 27 181 28 371 -20 return
          </CharString>
          <CharString index="120">
            vlineto
            -15 -6 -7 return
          </CharString>
          <CharString index="121">
            128 -60 60 return
          </CharString>
          <CharString index="122">
            2 rlineto
            -29 return
          </CharString>
          <CharString index="123">
            hintmask 10111000
            206 58 callsubr
            -13 -6 7 15 hvcurveto
            return
          </CharString>
          <CharString index="124">
            8 24 4 20 17 vvcurveto
            5 -1 6 -1 7 vhcurveto
            -4 20 rlineto
            return
          </CharString>
          <CharString index="125">
            87 46 39 95 vhcurveto
            151 hlineto
            -320 -542 rlineto
            -27 vlineto
            return
          </CharString>
          <CharString index="126">
            -17 4 -20 8 -24 vhcurveto
            -47 -25 10 11 -19 hvcurveto
            -26 15 rlineto
            return
          </CharString>
          <CharString index="127">
            hhcurveto
            -123 -62 -78 -88 -67 38 -50 72 -29 hvcurveto
            102 -41 rlineto
            return
          </CharString>
          <CharString index="128">
            hintmask 10100000
            -61 -203 rlineto
            40 hlineto
            hintmask 01100000
            61 203 rlineto
            return
          </CharString>
          <CharString index="129">
            -29 22 -18 32 32 23 18 29 31 -24 17 -31 -31 -23 return
          </CharString>
          <CharString index="130">
            -27 30 -6 -27 vvcurveto
            -4 -3 -12 -3 -13 vhcurveto
            -4 -20 rlineto
            return
          </CharString>
          <CharString index="131">
            49 -6 49 -1 -20 hstemhm
            return
          </CharString>
          <CharString index="132">
            -139 -21 155 96 return
          </CharString>
          <CharString index="133">
            37 -21 342 -20 hstem
            return
          </CharString>
          <CharString index="134">
            33 -2 -21 395 25 return
          </CharString>
          <CharString index="135">
            -9 38 -23 41 -43 vhcurveto
            return
          </CharString>
          <CharString index="136">
            8 10 12 -1 vhcurveto
            return
          </CharString>
          <CharString index="137">
            45 callsubr
            -36 hlineto
            return
          </CharString>
          <CharString index="138">
            -76 -145 hvcurveto
            92 return
          </CharString>
          <CharString index="139">
            39 -36 callsubr
            return
          </CharString>
          <CharString index="140">
            vlineto
            13 1 19 3 19 vhcurveto
            -139 -26 hlineto
            137 return
          </CharString>
          <CharString index="141">
            72 11 40 43 68 hhcurveto
            98 hlineto
            -249 -377 rlineto
            return
          </CharString>
          <CharString index="142">
            hmoveto
            29 vlineto
            return
          </CharString>
          <CharString index="143">
            47 37 35 47 47 -37 34 -47 -45 -38 -36 -45 return
          </CharString>
          <CharString index="144">
            67 37 -1 -3 9 hvcurveto
            8 45 callsubr
            -27 hlineto
            return
          </CharString>
          <CharString index="145">
            -20 42 callsubr
            170 27 64 27 3 27 return
          </CharString>
          <CharString index="146">
            11 0 27 -10 -21 573 28 1 -20 22 -20 return
          </CharString>
          <CharString index="147">
            -31 vlineto
            117 137 rmoveto
            -99 -81 vlineto
            endchar
          </CharString>
          <CharString index="148">
            150 -10 31 547 29 return
          </CharString>
          <CharString index="149">
            hstemhm
            52 callsubr
            return
          </CharString>
          <CharString index="150">
            -246 0 25 return
          </CharString>
          <CharString index="151">
            35 209 rmoveto
            return
          </CharString>
          <CharString index="152">
            171 rlineto
            return
          </CharString>
          <CharString index="153">
            194 rlineto
            -40 hlineto
            hintmask 10100000
            -59 -194 rlineto
            return
          </CharString>
          <CharString index="154">
            -51 -41 2 -4 hhcurveto
            -9 -142 rlineto
            21 hlineto
            return
          </CharString>
          <CharString index="155">
            -29 -13 -9 -23 vhcurveto
            -73 hlineto
            12 17 14 15 return
          </CharString>
          <CharString index="156">
            -24 24 -24 rlineto
            -15 return
          </CharString>
          <CharString index="157">
            83 callsubr
            vstem
            return
          </CharString>
          <CharString index="158">
            -30 vlineto
            49 2 rlineto
            return
          </CharString>
          <CharString index="159">
            108 93 return
          </CharString>
          <CharString index="160">
            195 endchar
          </CharString>
          <CharString index="161">
            193 endchar
          </CharString>
          <CharString index="162">
            hstemhm
            52 23 -23 75 177 74 -53 25 return
          </CharString>
          <CharString index="163">
            -96 callsubr
            165 vlineto
            return
          </CharString>
          <CharString index="164">
            -4 callsubr
            hstem
            return
          </CharString>
          <CharString index="165">
            35 callsubr
            -49 -2 rlineto
            return
          </CharString>
          <CharString index="166">
            15 callsubr
            vlineto
            return
          </CharString>
          <CharString index="167">
            64 117 64 return
          </CharString>
          <CharString index="168">
            -2 rlineto
            26 return
          </CharString>
          <CharString index="169">
            39 2 rlineto
            return
          </CharString>
          <CharString index="170">
            129 -114 99 -61 23 hintmask 11100000
            return
          </CharString>
          <CharString index="171">
            -41 16 -21 447 -20 hstem
            406 return
          </CharString>
          <CharString index="172">
            -247 -210 -21 942 -20 hstem
            return
          </CharString>
          <CharString index="173">
            -16 -239 58 -58 100 534 25 return
          </CharString>
          <CharString index="174">
            -245 -147 27 768 27 hstem
            return
          </CharString>
          <CharString index="175">
            27 30 6 27 vvcurveto
            19 -21 17 -27 return
          </CharString>
          <CharString index="176">
            13 -15 9 -16 -20 -13 -15 -17 vhcurveto
            return
          </CharString>
          <CharString index="177">
            2 rlineto
            11 return
          </CharString>
          <CharString index="178">
            37 2 rlineto
            return
          </CharString>
          <CharString index="179">
            -171 rlineto
            return
          </CharString>
          <CharString index="180">
            -54 -12 -14 -8 -9 -3 -5 rlinecurve
            return
          </CharString>
          <CharString index="181">
            -60 0 25 -6 -21 397 25 return
          </CharString>
          <CharString index="182">
            -11 10 -3 hhcurveto
            -3 -11 -10 -15 return
          </CharString>
          <CharString index="183">
            394 96 155 -20 hstemhm
            46 return
          </CharString>
          <CharString index="184">
            hstemhm
            56 82 229 90 -54 20 return
          </CharString>
          <CharString index="185">
            62 callsubr
            13 6 -10 -11 hvcurveto
            return
          </CharString>
          <CharString index="186">
            -24 rlineto
            -41 -43 -38 -23 -9 vvcurveto
            return
          </CharString>
          <CharString index="187">
            -30 82 callsubr
            return
          </CharString>
          <CharString index="188">
            142 26 hlineto
            return
          </CharString>
          <CharString index="189">
            vlineto
            62 callsubr
            return
          </CharString>
          <CharString index="190">
            -20 85 callsubr
            return
          </CharString>
          <CharString index="191">
            35 91 220 return
          </CharString>
          <CharString index="192">
            hstem
            85 86 return
          </CharString>
          <CharString index="193">
            -2 rlineto
            -13 return
          </CharString>
          <CharString index="194">
            rmoveto
            9 4 return
          </CharString>
        <CharString name=".notdef">
          -281 endchar
        </CharString>
        <CharString name="A">
          12 callsubr
          hstem
          -104 callsubr
          endchar
        </CharString>
        <CharString name="AE">
          380 0 28 -10 -21 211 28 61 27 102 -20 163 28 2 -20 hstemhm
          680 26 76 26 -7 27 hintmask 1011110110000000
          180 hmoveto
          30 vlineto
          -51 -3 -33 -3 16 37 11 19 rlinecurve
          76 128 rlineto
          246 hlineto
          29 -156 3 -12 -8 -14 -17 1 rlinecurve
          -57 3 rlineto
          -30 345 vlineto
          hintmask 0111110101000000
          15 37 0 -3 36 hvcurveto
          174 -27 vlineto
          -96 -47 -48 -94 vhcurveto
          -66 hlineto
          -11 -7 8 11 -3 hvcurveto
          -48 251 rlineto
          79 hlineto
          43 33 -42 -60 hvcurveto
          26 231 -26 hlineto
          -61 -33 -41 -43 vhcurveto
          -83 hlineto
          -45 245 rlineto
          164 hlineto
          hintmask 1011101110000000
          96 46 -38 -88 hvcurveto
          26 156 hlineto
          hintmask 1011110110000000
          -1 -7 -12 -1 -15 hhcurveto
          -36 hlineto
          -429 -32 hlineto
          51 70 callsubr
          11 -12 -12 -7 hvcurveto
          -279 -457 -27 -43 -14 -19 -19 3 rlinecurve
          -31 3 rlineto
          -30 vlineto
          382 515 rmoveto
          52 -279 rlineto
          -224 hlineto
          endchar
        </CharString>
        <CharString name="Aacute">
          12 callsubr
          253 -20 hstem
          -104 callsubr
          44 452 -107 callsubr
        </CharString>
        <CharString name="Acircumflex">
          100 95 177 65 53 callsubr
        </CharString>
        <CharString name="Adieresis">
          100 72 177 65 200 endchar
        </CharString>
        <CharString name="Agrave">
          100 14 177 65 54 callsubr
        </CharString>
        <CharString name="Aring">
          12 callsubr
          69 36 91 36 hstem
          217 42 83 42 vstem
          -94 callsubr
          -35 -3 -14 29 -20 49 rlinecurve
          -211 505 rlineto
          -26 hlineto
          -209 -503 -20 -49 -18 -31 -29 3 rlinecurve
          -62 callsubr
          63 502 rmoveto
          -47 36 -35 47 36 callsubr
          vhcurveto
          -10 callsubr
        </CharString>
        <CharString name="Atilde">
          12 callsubr
          114 24 callsubr
          hintmask 11101000
          -104 callsubr
          23 466 3 callsubr
          hintmask 11110100
          -72 callsubr
          hintmask 11101000
          -49 callsubr
        </CharString>
        <CharString name="B">
          72 -4 callsubr
          hstemhm
          118 93 194 95 -64 64 -64 97 hintmask 11100100
          312 hmoveto
          147 74 54 108 89 -76 66 -95 hvcurveto
          hintmask 11101000
          83 15 55 51 71 vvcurveto
          95 -61 48 -112 vhcurveto
          -277 -30 hlineto
          51 70 callsubr
          6 -11 -9 hvcurveto
          -500 13 callsubr
          -12 vhcurveto
          -50 59 callsubr
          161 299 rmoveto
          103 hlineto
          80 42 -45 -92 -84 -57 -50 -84 hvcurveto
          -70 hlineto
          -9 -5 4 9 hvcurveto
          516 vmoveto
          8 1 4 4 7 hhcurveto
          58 hlineto
          hintmask 11110000
          79 45 -44 -72 -84 -39 -42 -79 hvcurveto
          -76 hlineto
          endchar
        </CharString>
        <CharString name="C">
          106 -10 27 565 25 hstem
          45 102 vstem
          45 295 rmoveto
          -189 113 -116 182 20 23 3 5 27 vhcurveto
          37 10 37 12 rlineto
          8 24 24 7 21 hhcurveto
          6 hlineto
          -2 12 -1 16 19 vvcurveto
          8 1 16 1 16 vhcurveto
          2 24 2 21 rlineto
          -28 hlineto
          -85 -19 -76 -65 -94 hhcurveto
          -120 -78 114 164 172 73 115 120 90 81 -67 -82 18 hvcurveto
          24 hlineto
          -1 1 -2 9 11 vvcurveto
          14 vlineto
          5 0 5 -1 3 vhcurveto
          23 0 23 4 37 vhcurveto
          -13 -22 2 4 -12 hvcurveto
          35 -91 -14 2 -56 hhcurveto
          -188 -112 -115 -197 hvcurveto
          endchar
        </CharString>
        <CharString name="CR">
          -168 endchar
        </CharString>
        <CharString name="Ccedilla">
          106 120 0 67 203 endchar
        </CharString>
        <CharString name="D">
          122 0 28 541 28 hstem
          52 callsubr
          285 102 vstem
          287 hmoveto
          -22 callsubr
          -499 vlineto
          -12 -4 -10 -11 vhcurveto
          -43 59 callsubr
          151 556 rmoveto
          -35 callsubr
        </CharString>
        <CharString name="E">
          -20 callsubr
          1 38 callsubr
          hintmask 1011101111000000
          431 hmoveto
          hintmask 0111101111000000
          1 callsubr
          hintmask 1011101111000000
          -85 callsubr
          hlineto
          hintmask 1011011111000000
          155 vlineto
          hintmask 1011101111000000
          -1 -3 -6 0 -8 hhcurveto
          -21 hlineto
          -401 -30 hlineto
          38 2 rlineto
          12 1 8 -10 -12 vvcurveto
          -40 callsubr
          endchar
        </CharString>
        <CharString name="Eacute">
          -20 callsubr
          243 38 callsubr
          hintmask 1011111111000000
          431 hmoveto
          hintmask 0111111111000000
          1 callsubr
          hintmask 1011111111000000
          -70 callsubr
          -21 hlineto
          -401 -30 hlineto
          38 2 rlineto
          12 1 8 -10 -12 vvcurveto
          -40 callsubr
          169 688 -107 callsubr
        </CharString>
        <CharString name="Ecircumflex">
          62 76 177 69 53 callsubr
        </CharString>
        <CharString name="Edieresis">
          -20 callsubr
          100 97 42 callsubr
          -53 9 callsubr
          -80 27 64 27 3 27 hintmask 1011111010110000
          431 hmoveto
          hintmask 0111111010110000
          1 callsubr
          hintmask 1011111001110000
          -70 callsubr
          hintmask 1011111010110000
          -21 hlineto
          -401 -30 hlineto
          38 2 rlineto
          12 1 8 -10 -12 vvcurveto
          -40 callsubr
          hintmask 1011110110110000
          98 745 -106 callsubr
        </CharString>
        <CharString name="Egrave">
          62 -1 177 69 54 callsubr
        </CharString>
        <CharString name="Eth">
          130 0 28 265 36 240 28 hstem
          111 93 285 102 vstem
          111 293 rmoveto
          -244 vlineto
          -12 -4 -10 -11 vhcurveto
          -43 15 callsubr
          237 vlineto
          -22 callsubr
          -219 -69 -36 vlineto
          162 hmoveto
          187 36 -187 227 hlineto
          -35 callsubr
        </CharString>
        <CharString name="Euro">
          -35 -10 27 200 41 73 41 210 25 hstem
          64 217 rmoveto
          -144 20 85 -83 119 hhcurveto
          14 18 3 5 23 hvcurveto
          9 2 10 3 10 5 28 12 rcurveline
          8 20 18 7 16 hhcurveto
          5 hlineto
          -2 13 -1 15 19 vvcurveto
          17 vlineto
          2 23 rlineto
          16 2 17 1 12 vhcurveto
          -22 hlineto
          -85 -13 -60 -65 -74 hhcurveto
          -76 -56 73 127 -17 hvcurveto
          230 hlineto
          10 41 rlineto
          -243 hlineto
          -1 4 0 4 4 vvcurveto
          -1 3 0 4 5 vvcurveto
          13 vlineto
          23 vlineto
          4 0 4 1 5 vhcurveto
          234 hlineto
          10 41 rlineto
          -240 hlineto
          131 15 53 79 77 hhcurveto
          70 62 -67 -82 16 hvcurveto
          18 hlineto
          1 -1 9 -1 11 vhcurveto
          14 vlineto
          -1 5 0 5 3 vvcurveto
          23 0 21 3 39 vhcurveto
          -11 -15 2 4 -11 hvcurveto
          34 -69 -13 3 -43 hhcurveto
          -125 -84 -84 -151 -20 hvcurveto
          -51 hlineto
          -10 -41 rlineto
          58 hlineto
          -1 -5 0 -4 -4 vvcurveto
          -23 vlineto
          -23 vlineto
          -5 0 -4 1 -5 vhcurveto
          -48 hlineto
          -10 -41 rlineto
          endchar
        </CharString>
        <CharString name="F">
          28 0 28 259 28 254 28 1 -20 42 callsubr
          154 27 90 27 hintmask 11101110
          272 hmoveto
          30 vlineto
          -52 -3 rlineto
          -11 -8 9 12 hvcurveto
          239 75 vlineto
          47 32 -39 -61 hvcurveto
          27 230 -27 hlineto
          -64 -32 -38 -47 vhcurveto
          -75 241 hlineto
          9 4 4 8 vhcurveto
          117 hlineto
          99 43 -38 -88 hvcurveto
          27 hlineto
          hintmask 11011110
          155 vlineto
          hintmask 11101110
          -1 -3 -5 0 -7 hhcurveto
          -20 hlineto
          -414 -30 hlineto
          62 callsubr
          2 hlineto
          11 6 -7 -14 hvcurveto
          -40 callsubr
          endchar
        </CharString>
        <CharString name="G">
          145 -10 27 227 28 310 25 hstem
          45 102 326 93 vstem
          45 295 rmoveto
          -204 111 -101 184 47 17 2 15 44 vhcurveto
          53 19 9 3 11 3 11 2 rlinecurve
          20 2 rlineto
          5 4 0 -1 5 hvcurveto
          189 vlineto
          11 7 10 12 vhcurveto
          41 -2 rlineto
          29 -231 -29 vlineto
          59 2 rlineto
          13 6 -7 -15 hvcurveto
          -160 vlineto
          -36 -37 -32 -10 -59 hhcurveto
          -124 -74 83 195 195 82 92 111 81 59 -25 -57 24 hvcurveto
          7 -15 3 -17 -20 vvcurveto
          -5 0 -5 -1 -5 vhcurveto
          40 hlineto
          -3 16 rlineto
          12 vlineto
          -1 4 0 4 5 vvcurveto
          21 vlineto
          31 1 23 3 15 vhcurveto
          -23 -12 1 5 -12 hvcurveto
          27 -60 -46 10 -55 hhcurveto
          -191 -109 -104 -208 hvcurveto
          endchar
        </CharString>
        <CharString name="H">
          195 0 28 266 28 246 29 hstem
          52 callsubr
          294 93 vstem
          -41 callsubr
          245 294 -245 13 callsubr
          -13 vhcurveto
          -49 15 callsubr
          219 29 vlineto
          -39 86 callsubr
          -6 7 15 hvcurveto
          499 vlineto
          12 6 10 13 -1 vhcurveto
          32 callsubr
          -219 51 callsubr
          15 1 4 -11 -11 vvcurveto
          -226 -294 226 vlineto
          12 7 10 13 -1 -13 callsubr
          15 1 4 -68 callsubr
          endchar
        </CharString>
        <CharString name="I">
          -191 57 callsubr
          52 callsubr
          vstem
          -88 callsubr
          endchar
        </CharString>
        <CharString name="Iacute">
          -191 -4 callsubr
          243 -20 hstem
          52 callsubr
          vstem
          -88 callsubr
          36 688 -107 callsubr
        </CharString>
        <CharString name="Icircumflex">
          -191 -47 177 73 53 callsubr
        </CharString>
        <CharString name="Idieresis">
          -191 -4 callsubr
          100 97 hstemhm
          7 108 -7 93 1 108 hintmask 11101100
          -88 callsubr
          hintmask 11110100
          -43 745 -106 callsubr
        </CharString>
        <CharString name="Igrave">
          -191 -128 177 73 54 callsubr
        </CharString>
        <CharString name="J">
          -50 -10 26 552 29 hstem
          24 36 195 93 vstem
          24 -1 rmoveto
          7 7 17 -1 11 28 38 -15 56 hhcurveto
          109 58 61 128 hvcurveto
          370 vlineto
          11 7 10 13 -1 vhcurveto
          38 -36 callsubr
          -239 -30 vlineto
          69 70 callsubr
          1 8 -10 -12 vvcurveto
          -369 vlineto
          -120 -26 -43 -64 -83 -22 97 59 vhcurveto
          -36 -173 hlineto
          endchar
        </CharString>
        <CharString name="K">
          116 57 callsubr
          52 callsubr
          vstem
          -41 callsubr
          185 vlineto
          56 66 183 -248 12 -19 -10 -7 -17 1 rlinecurve
          -51 3 rlineto
          -30 237 30 vlineto
          -31 -3 rlineto
          -3 hlineto
          -9 -8 5 9 -7 hvcurveto
          -240 326 154 173 23 25 15 5 20 -1 rlinecurve
          34 -36 callsubr
          -178 -30 vlineto
          42 2 rlineto
          7 3 -3 -6 -3 -2 -4 -4 -5 hvcurveto
          -11 -15 -215 -255 rlineto
          269 vlineto
          15 7 7 13 -13 callsubr
          13 1 6 -10 -12 vvcurveto
          -499 -61 callsubr
          endchar
        </CharString>
        <CharString name="L">
          13 0 28 -10 -21 571 29 42 callsubr
          265 26 hintmask 10111000
          368 hmoveto
          hintmask 01111000
          71 41 -1 -2 12 hvcurveto
          174 -26 vlineto
          hintmask 10111000
          -93 -48 -50 -92 vhcurveto
          -113 -12 callsubr
          507 vlineto
          12 8 10 12 -1 -13 callsubr
          11 1 8 -11 -11 vvcurveto
          -499 vlineto
          -12 -4 -10 -11 vhcurveto
          -43 3 rlineto
          -30 vlineto
          endchar
        </CharString>
        <CharString name="M">
          357 0 28 -17 -21 578 29 hstemhm
          104 34 519 92 16 callsubr
          477 vlineto
          hintmask 01111000
          257 -536 rlineto
          24 hlineto
          238 530 rlineto
          -471 vlineto
          -15 -7 -7 -13 vhcurveto
          -49 2 rlineto
          hintmask 10111000
          -29 220 29 vlineto
          -39 -51 callsubr
          500 vlineto
          11 29 callsubr
          34 -36 callsubr
          -146 vlineto
          -218 -485 -233 485 rlineto
          -154 -30 hlineto
          42 2 rlineto
          7 1 3 -2 -5 vvcurveto
          -15 vlineto
          -499 vlineto
          -15 -7 -27 callsubr
          endchar
        </CharString>
        <CharString name="N">
          161 0 28 -13 -21 574 29 hstemhm
          104 34 387 34 16 callsubr
          476 vlineto
          hintmask 01111000
          391 -531 rlineto
          30 554 hlineto
          14 6 7 11 vhcurveto
          2 hlineto
          -34 callsubr
          3 hlineto
          11 6 -7 -13 hvcurveto
          -395 vlineto
          -325 443 rlineto
          -155 -30 hlineto
          62 callsubr
          13 1 7 -11 -11 vvcurveto
          -499 vlineto
          -15 -7 -24 callsubr
          hintmask 10111000
          -29 vlineto
          endchar
        </CharString>
        <CharString name="NULL">
          -501 endchar
        </CharString>
        <CharString name="Ntilde">
          161 151 177 78 196 endchar
        </CharString>
        <CharString name="O">
          -10 27 563 27 -84 callsubr
          endchar
        </CharString>
        <CharString name="OE">
          367 -10 37 -6 -21 297 27 102 -20 163 28 10 -20 hstemhm
          46 97 292 88 153 27 69 27 -8 27 hintmask 1011101111000000
          46 292 rmoveto
          -195 105 -107 189 vhcurveto
          hintmask 0111101110100000
          3 65 10 72 hhcurveto
          250 hlineto
          43 29 -1 -2 16 hvcurveto
          182 -27 vlineto
          hintmask 1011101111000000
          -97 -48 -55 -92 vhcurveto
          -115 hlineto
          -9 -4 4 9 hvcurveto
          257 76 vlineto
          41 36 -17 callsubr
          -34 -38 -43 vhcurveto
          -76 231 hlineto
          9 4 5 9 vhcurveto
          94 hlineto
          99 43 -35 -91 hvcurveto
          27 154 -327 hlineto
          hintmask 1011011111000000
          -47 -29 10 -53 hhcurveto
          -205 -92 -114 -201 hvcurveto
          97 4 rmoveto
          200 57 85 136 55 44 -24 -31 vhcurveto
          -436 vlineto
          -34 -19 -38 -80 -137 -56 81 197 vhcurveto
          endchar
        </CharString>
        <CharString name="Oacute">
          -10 27 563 27 233 -20 -84 callsubr
          95 389 -107 callsubr
        </CharString>
        <CharString name="Ocircumflex">
          130 177 79 53 callsubr
        </CharString>
        <CharString name="Odieresis">
          106 177 79 200 endchar
        </CharString>
        <CharString name="Ograve">
          49 177 79 54 callsubr
        </CharString>
        <CharString name="Oslash">
          163 -71 -21 81 27 564 27 78 -20 hstem
          44 102 378 102 vstem
          44 290 rmoveto
          -117 37 -84 75 -50 vhcurveto
          -67 -114 37 -17 65 110 rlineto
          -19 42 46 -10 50 hhcurveto
          181 116 109 196 108 -29 89 -89 64 hvcurveto
          64 110 -37 20 -63 -108 rlineto
          24 -53 -26 6 -58 hhcurveto
          -191 -100 -117 -200 hvcurveto
          102 3 rmoveto
          197 52 90 136 53 32 -10 -28 33 vhcurveto
          -268 -455 rlineto
          -28 45 -10 62 99 vvcurveto
          333 214 rmoveto
          32 -53 13 -48 -108 vvcurveto
          -203 -57 -79 -141 -49 -34 10 25 -31 vhcurveto
          endchar
        </CharString>
        <CharString name="Otilde">
          -10 27 563 27 94 24 callsubr
          45 102 376 102 hintmask 11010110
          -102 callsubr
          65 403 -50 callsubr
        </CharString>
        <CharString name="P">
          22 0 28 235 28 277 29 hstem
          52 callsubr
          191 96 vstem
          -41 callsubr
          214 105 vlineto
          113 69 69 104 108 -63 53 -140 hvcurveto
          -235 -30 hlineto
          35 2 rlineto
          19 1 4 -8 -15 vvcurveto
          -498 -61 callsubr
          151 557 rmoveto
          7 7 5 5 vhcurveto
          56 hlineto
          76 47 -54 -79 -84 -46 -61 -61 hvcurveto
          -84 hlineto
          endchar
        </CharString>
        <CharString name="Q">
          -196 30 -30 213 563 27 hstemhm
          45 102 137 101 138 102 hintmask 10111100
          -28 callsubr
          56 -63 58 -20 59 -7 rrcurveto
          -111 109 -78 148 vhcurveto
          13 30 rlineto
          -102 -67 68 91 hvcurveto
          59 7 59 20 56 63 rrcurveto
          -97 callsubr
          vhcurveto
          hintmask 01111100
          -43 callsubr
          endchar
        </CharString>
        <CharString name="R">
          80 0 28 258 27 255 29 42 callsubr
          191 94 -76 90 hintmask 11110100
          -41 callsubr
          237 42 vlineto
          83 84 -41 -108 hvcurveto
          -33 vlineto
          -12 1 -13 1 -13 vhcurveto
          1 -27 5 -23 8 -16 rrcurveto
          136 30 hlineto
          -8 -5 -17 0 -8 3 rrcurveto
          -20 3 -9 58 33 vvcurveto
          113 -77 62 -59 vhcurveto
          hintmask 11111000
          72 19 50 53 69 vvcurveto
          112 -63 47 -148 vhcurveto
          -225 -30 hlineto
          36 2 rlineto
          16 1 6 -68 callsubr
          151 559 rmoveto
          7 4 3 8 vhcurveto
          62 hlineto
          80 37 -39 -92 -80 -38 -45 -60 hvcurveto
          -93 hlineto
          endchar
        </CharString>
        <CharString name="S">
          -7 -10 28 562 27 77 callsubr
          hintmask 11110000
          -69 callsubr
          hintmask 11101000
          -23 callsubr
          -7 -9 2 4 -11 hvcurveto
          -36 12 -42 12 rlineto
          3 -15 -17 2 -19 20 callsubr
          hintmask 11110000
          -7 callsubr
          -25 hlineto
          endchar
        </CharString>
        <CharString name="Scaron">
          -7 -10 28 562 27 254 -20 77 callsubr
          hintmask 11111000
          -69 callsubr
          hintmask 11110100
          -23 callsubr
          -8 -9 2 4 -10 hvcurveto
          -36 12 rlineto
          8 -25 -31 9 -37 20 callsubr
          hintmask 11111000
          -7 callsubr
          18 650 rmoveto
          28 callsubr
          24 49 callsubr
          15 -5 callsubr
          15 hvcurveto
          24 24 24 24 rlineto
          hintmask 11110100
          -87 callsubr
        </CharString>
        <CharString name="T">
          28 0 28 541 28 2 -20 hstemhm
          15 26 177 93 177 26 cntrmask 00011100
          hintmask 11011100
          41 443 rmoveto
          85 35 41 89 vhcurveto
          41 hlineto
          8 4 -4 -8 hvcurveto
          -505 vlineto
          -13 -7 -12 -12 vhcurveto
          -54 15 callsubr
          239 29 vlineto
          -53 -51 callsubr
          509 vlineto
          7 1 4 4 7 hhcurveto
          42 hlineto
          89 34 -41 -85 hvcurveto
          26 hlineto
          hintmask 10111100
          156 vlineto
          hintmask 11011100
          -1 -4 -13 -1 -23 hhcurveto
          -77 hlineto
          -264 hlineto
          -78 hlineto
          hintmask 10111100
          -19 -14 1 1 -7 hvcurveto
          -156 vlineto
          endchar
        </CharString>
        <CharString name="Thorn">
          23 0 28 134 26 283 25 72 29 hstem
          97 93 192 96 vstem
          259 58 callsubr
          -15 -1 -5 10 13 vvcurveto
          113 103 vlineto
          117 68 68 104 112 -65 50 -141 hvcurveto
          -82 52 hlineto
          11 8 10 12 -13 callsubr
          13 6 -10 -11 hvcurveto
          -499 vlineto
          -13 -6 -10 -13 1 vhcurveto
          -39 59 callsubr
          151 471 rmoveto
          66 hlineto
          79 47 -56 -81 -82 -51 -64 -59 hvcurveto
          -69 hlineto
          -7 -6 6 7 hvcurveto
          endchar
        </CharString>
        <CharString name="U">
          41 callsubr
          hstem
          92 93 347 -103 callsubr
          endchar
        </CharString>
        <CharString name="Uacute">
          41 callsubr
          243 -20 hstem
          92 93 347 -103 callsubr
          248 121 -107 callsubr
        </CharString>
        <CharString name="Ucircumflex">
          150 158 177 85 53 callsubr
        </CharString>
        <CharString name="Udieresis">
          41 callsubr
          100 97 hstem
          92 93 21 9 callsubr
          23 -103 callsubr
          171 178 -106 callsubr
        </CharString>
        <CharString name="Ugrave">
          150 74 177 85 54 callsubr
        </CharString>
        <CharString name="V">
          83 17 -21 572 29 hstem
          23 569 rmoveto
          9 7 -8 -15 7 hvcurveto
          237 -550 rlineto
          26 hlineto
          238 550 7 16 3 8 11 -1 rlinecurve
          36 -36 callsubr
          -157 -30 vlineto
          51 2 rlineto
          14 -1 -10 -13 -4 hvcurveto
          -4 -12 -174 -405 -181 416 rlineto
          11 -4 4 13 9 hhcurveto
          53 -36 callsubr
          -215 -30 vlineto
          endchar
        </CharString>
        <CharString name="W">
          383 11 -21 579 28 hstem
          23 569 rmoveto
          2 hlineto
          9 7 -7 -15 5 hvcurveto
          211 -557 rlineto
          19 hlineto
          170 520 206 -520 rlineto
          16 hlineto
          181 558 3 9 9 13 13 -1 rlinecurve
          30 -36 callsubr
          -153 -30 vlineto
          52 2 11 1 4 -10 -4 -11 rlinecurve
          -129 -408 -164 406 -3 8 2 17 11 -3 rlinecurve
          42 -36 callsubr
          -208 -30 vlineto
          71 callsubr
          4 hlineto
          13 6 -5 -9 -3 -1 -3 -1 -4 hvcurveto
          -126 -390 -149 392 rlineto
          -2 6 -1 4 1 vvcurveto
          9 4 3 9 -1 vhcurveto
          53 -36 callsubr
          -216 -30 vlineto
          endchar
        </CharString>
        <CharString name="X">
          65 57 callsubr
          189 hmoveto
          30 vlineto
          -45 -3 -8 -1 -5 9 7 12 rlinecurve
          135 216 126 -213 8 -11 0 -13 -15 1 rlinecurve
          -49 3 rlineto
          -30 235 30 vlineto
          -39 -3 -15 -1 -10 9 -5 9 rlinecurve
          -169 284 138 221 rlineto
          13 9 10 7 12 hhcurveto
          3 hlineto
          28 -36 callsubr
          -152 -30 vlineto
          43 2 15 1 0 -10 -7 -11 rlinecurve
          -119 -188 -109 187 -7 9 4 13 17 -1 rlinecurve
          42 -36 callsubr
          -228 -30 vlineto
          32 70 callsubr
          13 -4 -15 8 hvcurveto
          151 -254 -154 -246 rlineto
          -15 -9 -11 -7 -14 hhcurveto
          -3 hlineto
          -33 2 rlineto
          -30 vlineto
          endchar
        </CharString>
        <CharString name="Y">
          6 57 callsubr
          220 93 vstem
          22 569 rmoveto
          1 0 0 0 hvcurveto
          9 8 -6 -13 7 hvcurveto
          173 -287 rlineto
          -214 13 callsubr
          -13 vhcurveto
          -49 15 callsubr
          229 29 vlineto
          -48 -2 rlineto
          -15 -5 9 12 hvcurveto
          240 vlineto
          146 260 rlineto
          14 8 9 7 11 hhcurveto
          0 0 0 1 vhcurveto
          -52 callsubr
        </CharString>
        <CharString name="Yacute">
          6 97 177 89 194 endchar
        </CharString>
        <CharString name="Ydieresis">
          6 58 177 89 200 endchar
        </CharString>
        <CharString name="Z">
          39 callsubr
          hstemhm
          35 27 403 23 hintmask 10100110
          371 hmoveto
          hintmask 01100110
          37 callsubr
          hintmask 10100110
          5 callsubr
          hintmask 10010110
          1 -9 -11 0 -12 hhcurveto
          -36 hlineto
          hintmask 10001110
          1 -12 -10 1 -7 hhcurveto
          -12 -157 27 hlineto
          hintmask 10100110
          18 callsubr
          endchar
        </CharString>
        <CharString name="Zcaron">
          39 callsubr
          281 -20 hstemhm
          35 27 403 23 hintmask 10100111
          371 hmoveto
          hintmask 01100111
          37 callsubr
          hintmask 10100111
          5 callsubr
          hintmask 10010111
          -9 -10 0 1 -13 hvcurveto
          -36 hlineto
          hintmask 10001111
          -29 2 rlineto
          -12 -157 27 hlineto
          hintmask 10100111
          18 callsubr
          66 853 -74 callsubr
        </CharString>
        <CharString name="a">
          -42 callsubr
          8 callsubr
          86 hintmask 10110101
          -53 callsubr
          hintmask 01110011
          -99 callsubr
          hintmask 10101101
          -92 callsubr
          endchar
        </CharString>
        <CharString name="aacute">
          -42 callsubr
          233 -20 8 callsubr
          86 hintmask 1011011010000000
          -53 callsubr
          hintmask 0111010110000000
          -99 callsubr
          hintmask 1010111010000000
          -92 callsubr
          12 399 -107 callsubr
        </CharString>
        <CharString name="acircumflex">
          -51 20 0 97 53 callsubr
        </CharString>
        <CharString name="acute">
          -152 524 -21 160 -20 hstem
          108 511 -107 callsubr
        </CharString>
        <CharString name="adieresis">
          -51 0 0 97 200 endchar
        </CharString>
        <CharString name="ae">
          219 -5 28 -12 -21 227 25 48 140 -27 27 8 callsubr
          87 209 85 hintmask 1011010110000000
          27 98 rmoveto
          -72 62 -31 83 72 42 31 61 32 vhcurveto
          hintmask 0111010110000000
          -60 29 54 -37 107 hhcurveto
          71 66 38 64 29 hvcurveto
          -24 18 rlineto
          hintmask 1011001110000000
          -49 -24 -60 -38 -52 hhcurveto
          -88 -45 77 117 hvcurveto
          294 hlineto
          137 -58 76 -117 -64 -46 -14 -36 -39 vhcurveto
          32 -23 -43 18 -75 hhcurveto
          -111 -50 -38 -53 -31 14 -18 31 24 23 12 19 hvcurveto
          12 -10 15 11 vvcurveto
          hintmask 1010110110000000
          31 30 13 49 63 21 -33 -57 vhcurveto
          -71 vlineto
          -179 -88 -34 -110 hvcurveto
          91 -5 rmoveto
          81 51 43 125 vhcurveto
          -40 vlineto
          -88 -50 -61 -53 -41 -32 18 47 vhcurveto
          263 149 rmoveto
          108 36 53 84 69 20 -61 -72 -12 -2 -16 -8 vhcurveto
          endchar
        </CharString>
        <CharString name="agrave">
          -51 -58 0 97 54 callsubr
        </CharString>
        <CharString name="ampersand">
          109 -10 31 0 -21 371 28 179 28 hstemhm
          22 89 21 77 121 56 75 32 hintmask 10111111
          22 163 rmoveto
          -111 93 -62 101 101 46 45 46 35 vhcurveto
          hintmask 01111111
          60 -81 rlineto
          167 28 hlineto
          -56 86 callsubr
          -10 4 9 -7 hvcurveto
          -90 122 rlineto
          29 62 15 63 64 vvcurveto
          15 4 7 9 vhcurveto
          46 -2 rlineto
          29 -151 -29 vlineto
          46 70 callsubr
          3 -11 -12 -58 -7 -37 -26 -63 hvcurveto
          -141 192 57 36 rlineto
          27 15 15 37 32 vvcurveto
          68 -44 35 -80 -72 -58 -49 -65 -25 14 -48 32 -41 vhcurveto
          -73 -52 rlineto
          -60 -43 -23 -51 -69 vvcurveto
          89 8 rmoveto
          64 24 66 47 35 vhcurveto
          17 14 181 -245 rlineto
          -56 -40 -45 -28 -51 hhcurveto
          -77 -56 67 83 hvcurveto
          98 344 rmoveto
          35 26 28 31 33 31 -31 -43 -25 -7 -19 -13 -13 vhcurveto
          -44 -36 -18 23 -20 27 rlineto
          -16 22 -3 12 20 vvcurveto
          endchar
        </CharString>
        <CharString name="aring">
          -42 callsubr
          49 36 91 36 hstemhm
          27 91 -69 92 -12 42 83 42 -2 86 hintmask 1011011101010000
          -53 callsubr
          hintmask 0111011010010000
          -99 callsubr
          hintmask 1010111101010000
          -92 callsubr
          11 449 rmoveto
          -47 36 -35 47 vhcurveto
          hintmask 1011011101100000
          36 callsubr
          hvcurveto
          -10 callsubr
        </CharString>
        <CharString name="asciicircum">
          -41 342 -21 336 -20 hstem
          64 321 rmoveto
          147 245 19 42 20 -42 145 -245 rlineto
          47 hlineto
          -200 336 rlineto
          -23 hlineto
          -201 -336 rlineto
          endchar
        </CharString>
        <CharString name="asciitilde">
          -41 215 48 17 48 hstem
          49 226 rmoveto
          45 31 18 9 33 61 70 -65 63 hhcurveto
          44 41 30 48 29 hvcurveto
          -28 29 rlineto
          -45 -31 -22 -14 -33 -61 -68 65 -65 hhcurveto
          -44 -36 -24 -49 -29 hvcurveto
          endchar
        </CharString>
        <CharString name="asterisk">
          -163 354 152 -52 52 -28 28 -28 52 -52 152 hstemhm
          20 127 -76 76 49 71 -71 122 hintmask 0100010100000000
          20 492 rmoveto
          -29 8 -9 25 vhcurveto
          hintmask 0010001100000000
          25 -16 24 46 hhcurveto
          11 9 -2 -3 7 hvcurveto
          -7 -3 -9 -6 -11 vhcurveto
          -5 -9 -6 -7 -7 -5 -11 -7 -7 6 -7 -7 rrcurveto
          -5 -4 -7 -10 -13 vvcurveto
          hintmask 1000010100000000
          -14 30 -22 19 7 20 10 19 vhcurveto
          7 -6 4 11 vvcurveto
          11 13 26 15 11 vhcurveto
          13 -9 14 -28 -11 -11 -5 -4 -7 vvcurveto
          -19 20 -10 7 22 27 25 11 15 -7 9 -7 4 vhcurveto
          -7 4 -6 -2 -9 4 -8 4 -3 5 -8 13 rrcurveto
          -7 11 -3 9 7 vvcurveto
          hintmask 0001010100000000
          3 7 8 2 13 hhcurveto
          hintmask 0100010010000000
          46 -16 -24 25 hhcurveto
          25 8 9 29 hvcurveto
          hintmask 0001010100000000
          29 -8 9 -25 vhcurveto
          hintmask 1000010100000000
          -25 16 -24 -46 hhcurveto
          -13 -8 2 3 -7 hvcurveto
          1 7 2 8 7 12 6 11 6 7 7 4 9 5 7 -2 7 3 rrcurveto
          7 4 6 13 11 vvcurveto
          hintmask 0000101100000000
          12 -29 24 -20 -7 -20 -10 -19 vhcurveto
          -7 5 -4 -11 vvcurveto
          -11 -13 -29 -14 -8 vhcurveto
          -13 8 -15 29 11 11 6 4 7 vvcurveto
          19 -20 10 -8 -19 -29 -21 -16 -11 6 -11 7 -4 vhcurveto
          5 -3 7 0 8 -3 8 -3 7 -7 7 -13 rrcurveto
          6 -11 3 -9 -7 vvcurveto
          hintmask 1000010100000000
          -3 -7 -9 -2 -11 hhcurveto
          hintmask 0001010100000000
          -46 16 24 -25 hhcurveto
          -25 -8 -9 -29 hvcurveto
          endchar
        </CharString>
        <CharString name="at">
          240 -145 29 106 55 -55 85 325 30 137 29 hstemhm
          26 56 90 89 174 93 -44 44 155 31 hintmask 1011111101000000
          26 178 rmoveto
          -199 138 -124 212 129 96 36 96 93 vhcurveto
          -18 22 rlineto
          -88 -86 -86 -37 -119 hhcurveto
          -187 -116 117 172 59 12 59 23 58 hvcurveto
          139 57 110 79 137 hhcurveto
          148 114 -119 -143 -50 -13 -47 -27 -43 hvcurveto
          -38 -25 -51 -52 -26 hhcurveto
          -9 -4 6 11 36 20 102 22 100 hvcurveto
          23 98 -92 -17 -5 -20 rlineto
          27 -13 -15 12 -29 hhcurveto
          -142 -125 -178 -140 -76 33 -46 59 63 55 51 146 77 hvcurveto
          -15 -64 -9 -58 -29 vvcurveto
          -31 5 -15 19 30 22 9 37 50 vhcurveto
          96 69 57 101 100 vvcurveto
          163 -125 127 -168 -227 -168 -203 -215 vhcurveto
          235 -55 rmoveto
          37 8 39 15 42 vhcurveto
          95 35 57 64 65 hhcurveto
          hintmask 1101111011000000
          25 18 -24 -28 -118 -134 -185 -39 -33 -17 26 52 hvcurveto
          endchar
        </CharString>
        <CharString name="atilde">
          -42 callsubr
          94 49 -6 49 -1 -20 8 callsubr
          86 hintmask 1011010110100000
          -53 callsubr
          hintmask 0111010101100000
          -99 callsubr
          hintmask 1010101010100000
          -92 callsubr
          -16 413 3 callsubr
          hintmask 1011010110100000
          -72 callsubr
          hintmask 1011001010100000
          -49 callsubr
        </CharString>
        <CharString name="b">
          -5 -10 27 -1 -21 408 27 300 -20 hstemhm
          70 87 213 91 hintmask 01111100
          57 707 -25 callsubr
          -692 33 vlineto
          39 9 27 19 9 6 -3 -6 3 vhcurveto
          hintmask 10111100
          -31 23 25 -31 74 hhcurveto
          129 61 74 145 145 -56 76 -117 -67 -41 -33 -55 -23 hvcurveto
          388 -136 -25 vlineto
          138 -479 rmoveto
          107 42 70 76 75 18 -44 -150 -146 -23 -46 -76 -85 -27 69 98 vhcurveto
          endchar
        </CharString>
        <CharString name="backslash">
          -253 16 -21 640 -20 hstem
          210 -5 rmoveto
          40 11 -219 629 -39 -9 rlineto
          endchar
        </CharString>
        <CharString name="bar">
          -269 -218 -21 969 -20 hstem
          98 36 vstem
          134 -239 rmoveto
          969 -36 -969 vlineto
          endchar
        </CharString>
        <CharString name="braceleft">
          -221 -146 30 761 30 hstemhm
          102 67 -67 133 hintmask 11100000
          30 257 rmoveto
          59 -13 13 -7 -61 vvcurveto
          -229 vlineto
          -72 19 -21 80 vhcurveto
          hintmask 11010000
          34 30 -27 hlineto
          hintmask 11100000
          -28 -11 21 35 hvcurveto
          236 vlineto
          62 -21 13 -75 16 vhcurveto
          75 13 21 16 62 vvcurveto
          231 vlineto
          37 13 19 26 vhcurveto
          hintmask 11010000
          27 30 -34 hlineto
          -77 -22 -21 -72 hvcurveto
          -224 vlineto
          -53 -19 -20 -53 -8 vhcurveto
          -20 vlineto
          endchar
        </CharString>
        <CharString name="braceright">
          -211 -146 30 761 30 hstemhm
          45 143 -67 67 hintmask 11100000
          45 -146 rmoveto
          44 hlineto
          80 19 21 72 hvcurveto
          229 vlineto
          61 13 7 59 13 vhcurveto
          20 vlineto
          -53 8 -19 20 53 vvcurveto
          224 vlineto
          72 -22 21 -77 vhcurveto
          -44 -30 37 hlineto
          hintmask 11010000
          26 13 -19 -37 hvcurveto
          -231 vlineto
          -62 21 -16 75 -13 vhcurveto
          -75 -16 -21 -13 -62 vvcurveto
          -236 vlineto
          -35 -11 -21 -28 vhcurveto
          hintmask 11100000
          -37 hlineto
          endchar
        </CharString>
        <CharString name="bracketleft">
          67 callsubr
          46 73 vstem
          223 -147 rmoveto
          27 -104 768 104 27 -177 -822 vlineto
          endchar
        </CharString>
        <CharString name="bracketright">
          67 callsubr
          139 71 vstem
          34 -147 rmoveto
          176 822 -176 -27 105 -768 -105 hlineto
          endchar
        </CharString>
        <CharString name="brokenbar">
          -269 -210 -21 838 -20 hstem
          97 38 vstem
          97 -231 rmoveto
          38 344 -38 hlineto
          38 152 rmoveto
          342 -38 -342 vlineto
          endchar
        </CharString>
        <CharString name="bullet">
          -32 131 232 hstem
          105 247 rmoveto
          -68 53 -48 76 71 57 47 69 69 -56 47 -72 -72 -57 -47 -69 vhcurveto
          endchar
        </CharString>
        <CharString name="c">
          -76 -10 27 261 152 -27 27 hstemhm
          36 93 184 74 hintmask 10111000
          36 209 rmoveto
          -140 75 -79 128 87 57 42 75 23 vhcurveto
          -25 17 rlineto
          -61 -16 -60 -46 -60 hhcurveto
          -77 -39 65 124 140 31 57 72 43 38 -17 -33 hvcurveto
          -24 -9 -2 -21 vvcurveto
          hintmask 11011000
          -19 13 -9 27 23 20 20 29 59 -71 44 -84 -117 -79 -89 -132 vhcurveto
          endchar
        </CharString>
        <CharString name="ccedilla">
          -76 20 0 99 203 endchar
        </CharString>
        <CharString name="cedilla">
          -54 -214 27 187 -20 hstemhm
          208 21 0 65 hintmask 11010000
          131 -198 rmoveto
          -15 23 29 -1 17 hhcurveto
          61 33 36 56 hvcurveto
          hintmask 11100000
          52 -86 -15 23 vvcurveto
          5 2 7 4 7 vhcurveto
          27 43 rlineto
          -33 hlineto
          -41 -52 rlineto
          -4 -4 -2 -4 -5 vvcurveto
          -5 4 -5 7 -5 vhcurveto
          23 -14 rlineto
          17 -9 17 -13 -17 vvcurveto
          -31 -25 -23 -31 -15 -12 4 9 -8 vhcurveto
          -7 -24 rlineto
          endchar
        </CharString>
        <CharString name="cent">
          -107 -74 -21 210 22 308 22 180 -20 hstem
          51 76 79 37 30 59 vstem
          51 290 rmoveto
          -109 58 -63 97 -3 vhcurveto
          -210 37 212 vlineto
          52 9 37 32 15 51 -20 13 rcurveline
          -49 -15 -45 -36 -49 hhcurveto
          -61 -30 50 101 112 22 45 59 33 32 -13 -27 hvcurveto
          -19 -10 -2 -16 vvcurveto
          -15 11 -8 23 19 16 16 24 39 -38 29 -51 11 vhcurveto
          183 -37 -180 vlineto
          -93 -1 -62 -69 -107 vvcurveto
          endchar
        </CharString>
        <CharString name="circumflex">
          -99 499 -21 156 -20 hstem
          49 -47 callsubr
          -24 24 -24 24 rlineto
          15 -15 75 callsubr
          -15 hvcurveto
          -24 -24 -24 79 callsubr
          endchar
        </CharString>
        <CharString name="colon">
          -251 -10 115 183 115 hstem
          60 -56 callsubr
          298 vmoveto
          -91 callsubr
          endchar
        </CharString>
        <CharString name="comma">
          -251 25 callsubr
          hstemhm
          61 14 callsubr
          hintmask 11100000
          79 -160 -73 callsubr
        </CharString>
        <CharString name="copyright">
          172 -11 30 -30 130 315 126 -30 30 hstemhm
          56 32 93 57 355 34 hintmask 10011110
          -79 callsubr
          93 4 rmoveto
          -108 59 -65 107 vhcurveto
          36 47 22 32 hhcurveto
          3 hlineto
          -1 7 -1 4 8 vvcurveto
          3 2 29 4 23 vhcurveto
          -16 hlineto
          hintmask 01101110
          -47 -11 -43 -35 -53 hhcurveto
          -67 -41 65 88 97 41 65 68 53 42 -36 -48 11 hvcurveto
          12 hlineto
          1 -1 18 8 vvcurveto
          12 0 13 3 21 vhcurveto
          -7 -1 -8 0 -29 12 rrcurveto
          15 -32 -30 -1 -15 hhcurveto
          -103 -59 -62 -108 -3 hvcurveto
          endchar
        </CharString>
        <CharString name="currency">
          -58 94 32 -22 -21 320 32 8 -20 hstemhm
          52 31 278 32 hintmask 10101100
          65 84 rmoveto
          49 49 rlineto
          -24 29 38 -15 41 hhcurveto
          41 36 14 24 31 hvcurveto
          hintmask 01101100
          48 -49 23 23 -48 49 rlineto
          24 31 16 36 43 vvcurveto
          40 -15 36 -24 31 vhcurveto
          48 47 -23 23 -47 -47 rlineto
          25 -31 -36 15 -43 hhcurveto
          -41 -37 -15 -24 -31 hvcurveto
          hintmask 10011100
          -47 47 -23 -23 47 -47 rlineto
          -24 -31 -14 -36 -41 vvcurveto
          -41 13 -37 26 -31 vhcurveto
          -49 -49 rlineto
          41 158 rmoveto
          hintmask 10101100
          76 63 62 76 77 62 -62 -76 -77 -62 -62 -77 -76 -63 62 77 vhcurveto
          endchar
        </CharString>
        <CharString name="d">
          -5 -10 27 4 -21 403 27 300 -20 hstemhm
          35 92 212 87 hintmask 10111100
          44 callsubr
          -145 50 -74 140 64 32 30 47 15 vhcurveto
          -3 -2 -13 -13 vvcurveto
          -22 vlineto
          hintmask 01111100
          -7 -1 -5 -1 -4 vhcurveto
          144 26 hlineto
          -37 -96 callsubr
          687 -146 -25 vlineto
          46 2 rlineto
          9 4 -9 -11 hvcurveto
          -339 vlineto
          45 -13 -38 37 -64 hhcurveto
          -125 -64 31 callsubr
          hmoveto
          116 21 78 76 79 34 -69 -108 vhcurveto
          -42 vlineto
          hintmask 10111100
          -113 -29 -54 -83 -77 -21 50 142 vhcurveto
          endchar
        </CharString>
        <CharString name="dagger">
          27 -129 -21 508 100 -61 61 -61 243 hstemhm
          35 242 -68 68 -55 74 -74 87 -68 36 -36 242 hintmask 1100100000000000
          35 408 rmoveto
          -29 9 -21 31 vhcurveto
          hintmask 1010010000000000
          28 -1 39 34 -29 callsubr
          hintmask 1100001000000000
          -19 10 -37 3 -87 vhcurveto
          -145 3 4 -161 30 hhcurveto
          30 4 161 145 3 hvcurveto
          hintmask 1010000100000000
          3 87 10 37 19 -31 callsubr
          hintmask 1100000001000000
          -15 callsubr
          hintmask 1001100000000000
          -11 -19 -25 -10 -47 hhcurveto
          17 callsubr
          -3 13 -3 12 4 68 callsubr
          -27 -21 -17 -19 vhcurveto
          hintmask 1100000010000000
          23 callsubr
          -1 -7 -1 -6 -5 vvcurveto
          19 callsubr
          4 -8 -10 2 -11 hhcurveto
          hintmask 1100100000000000
          -33 -27 -21 -29 hvcurveto
          endchar
        </CharString>
        <CharString name="daggerdbl">
          27 -153 243 -61 61 -61 100 229 100 -68 26 -26 68 -68 250 hstemhm
          35 242 -66 66 -48 60 -48 36 -36 66 -66 242 hintmask 0101000100000000
          35 79 rmoveto
          -29 27 -21 33 11 10 2 5 8 vhcurveto
          26 14 rlineto
          hintmask 1001000000100000
          11 19 25 10 47 hhcurveto
          hintmask 1001000001000000
          -8 -24 -4 -20 -17 vvcurveto
          -5 1 -6 1 -7 vhcurveto
          4 -20 rlineto
          hintmask 1001000000010000
          3 -13 3 -12 -4 vvcurveto
          hintmask 1001000010000000
          -27 -30 -6 -27 vvcurveto
          -19 21 -17 27 vhcurveto
          hintmask 1001000000010000
          27 21 17 19 hvcurveto
          hintmask 1001000100000000
          27 -30 6 27 vvcurveto
          4 3 12 3 13 vhcurveto
          4 20 rlineto
          hintmask 1001000001000000
          1 7 1 6 5 vvcurveto
          hintmask 0011000100000000
          17 -4 20 -8 24 vhcurveto
          47 25 -10 -11 19 hvcurveto
          26 -14 rlineto
          -5 8 10 -2 11 hhcurveto
          hintmask 0011000000001000
          33 27 21 29 29 -9 21 -31 hvcurveto
          hintmask 1000010100000000
          -29 3 -39 -35 -24 -21 7 -23 hhcurveto
          -13 -13 -2 -7 -15 hvcurveto
          32 9 18 9 12 vhcurveto
          13 18 rlineto
          3 5 2 7 8 vvcurveto
          18 -9 22 -6 10 vhcurveto
          -3 6 9 18 rlineto
          5 11 4 13 13 -31 callsubr
          hintmask 1001000000001000
          -15 callsubr
          hintmask 1000100100000000
          -11 -19 -25 -10 -47 hhcurveto
          hintmask 1001000001000000
          17 callsubr
          hintmask 1001000010000000
          -3 13 -3 12 4 vvcurveto
          hintmask 1000001000010000
          68 callsubr
          vhcurveto
          hintmask 1001000010000000
          -27 -21 -17 -19 hvcurveto
          hintmask 1001000000100000
          23 callsubr
          hintmask 1000100001000000
          -1 -7 -1 -6 -5 vvcurveto
          hintmask 1000100000100000
          19 callsubr
          hintmask 1001000100000000
          4 -8 -10 2 -11 hhcurveto
          -33 -27 -21 -29 -29 9 -21 31 hvcurveto
          28 -1 39 34 hhcurveto
          hintmask 1000100100000000
          -29 callsubr
          -1 -13 5 -13 5 -11 9 -18 rcurveline
          -3 -6 rlineto
          -6 -10 -9 -22 -18 vvcurveto
          -8 2 -7 3 -5 vhcurveto
          13 -18 rlineto
          9 -12 9 -18 -32 vvcurveto
          7 -15 -13 2 -13 -23 -21 -7 -24 hhcurveto
          hintmask 0011000100000000
          -34 1 39 -28 hhcurveto
          -31 -9 -21 -29 hvcurveto
          endchar
        </CharString>
        <CharString name="degree">
          -127 411 42 112 42 hstem
          89 41 113 42 vstem
          89 509 rmoveto
          -52 46 -46 52 52 46 46 52 52 -46 46 -52 -52 -46 -46 -52 vhcurveto
          41 hmoveto
          31 26 25 31 29 27 -25 -31 -31 -27 -25 -29 -31 -26 25 31 vhcurveto
          endchar
        </CharString>
        <CharString name="dieresis">
          -54 520 97 hstem
          77 9 callsubr
          vstem
          77 568 -106 callsubr
        </CharString>
        <CharString name="divide">
          -41 50 95 104 41 99 95 hstem
          175 109 vstem
          441 249 rmoveto
          41 -422 -41 vlineto
          156 -152 rmoveto
          22 callsubr
          -19 -29 vhcurveto
          339 vmoveto
          22 callsubr
          -17 -31 vhcurveto
          endchar
        </CharString>
        <CharString name="dollar">
          -35 -74 -21 544 22 176 -20 hstemhm
          87 60 59 37 52 60 -43 20 hintmask 11111100
          87 135 rmoveto
          3 5 8 2 11 hhcurveto
          20 36 -16 -4 39 hvcurveto
          -215 37 215 vlineto
          67 7 45 36 65 vvcurveto
          45 -19 30 -56 15 vhcurveto
          -81 22 rlineto
          -35 9 -17 20 25 vvcurveto
          39 24 16 43 vhcurveto
          hintmask 11111010
          61 37 -40 -40 hvcurveto
          18 hlineto
          5 91 rlineto
          -5 -8 -8 -2 -7 hhcurveto
          -19 -23 9 5 -27 hvcurveto
          180 -37 -176 vlineto
          -73 -3 -46 -39 -56 vvcurveto
          -45 29 -34 43 -11 vhcurveto
          80 -22 rlineto
          hintmask 11111100
          43 -11 13 -18 -31 vvcurveto
          -36 -24 -24 -43 -63 -48 41 60 -11 vhcurveto
          -19 -1 rlineto
          -106 vlineto
          endchar
        </CharString>
        <CharString name="e">
          11 callsubr
          -80 callsubr
          endchar
        </CharString>
        <CharString name="eacute">
          11 callsubr
          233 -20 -80 callsubr
          -168 274 -107 callsubr
        </CharString>
        <CharString name="ecircumflex">
          -52 19 0 101 53 callsubr
        </CharString>
        <CharString name="edieresis">
          11 callsubr
          90 97 hstemhm
          35 91 -50 9 callsubr
          -50 85 hintmask 11111001
          -98 callsubr
          hintmask 11110110
          -233 331 -106 callsubr
        </CharString>
        <CharString name="egrave">
          -52 -57 0 101 54 callsubr
        </CharString>
        <CharString name="eight">
          -61 -9 25 508 25 hstemhm
          37 67 -47 86 171 74 -74 88 hintmask 11100100
          37 126 rmoveto
          -100 72 -35 107 92 94 58 90 73 -56 49 -72 36 vhcurveto
          hintmask 11011000
          52 10 62 75 47 vvcurveto
          83 -70 37 -88 -96 -77 -50 -89 -56 37 -40 64 -39 vhcurveto
          hintmask 11101000
          -69 -35 -52 -57 -57 vvcurveto
          67 hmoveto
          45 36 63 42 26 vhcurveto
          47 -29 rlineto
          60 -35 25 -43 -47 vvcurveto
          -56 -42 -34 -56 -71 -41 49 61 vhcurveto
          hintmask 11011000
          39 313 rmoveto
          51 36 34 56 55 33 -33 -60 -51 -21 -41 -49 -28 vhcurveto
          -76 39 -34 50 39 vvcurveto
          endchar
        </CharString>
        <CharString name="ellipsis">
          188 -10 115 hstem
          60 130 90 130 89 -56 callsubr
          220 hmoveto
          -91 callsubr
          219 hmoveto
          -91 callsubr
          endchar
        </CharString>
        <CharString name="emdash">
          293 191 39 hstem
          794 191 rmoveto
          39 -794 -39 vlineto
          endchar
        </CharString>
        <CharString name="endash">
          -24 191 39 hstem
          459 191 rmoveto
          39 -441 -39 vlineto
          endchar
        </CharString>
        <CharString name="equal">
          -41 103 43 156 43 hstem
          425 103 rmoveto
          43 -390 -43 vlineto
          390 199 rmoveto
          43 -390 -43 vlineto
          endchar
        </CharString>
        <CharString name="eth">
          -9 -11 25 390 25 178 -20 33 -20 hstemhm
          35 91 240 91 hintmask 11011100
          44 callsubr
          -145 74 -75 137 136 75 88 136 145 -57 116 -104 72 vhcurveto
          82 48 -14 26 -96 -55 rlineto
          hintmask 11101100
          27 -43 -50 15 -43 hhcurveto
          -20 -22 rlineto
          31 34 -16 -31 44 hvcurveto
          -96 -55 15 -26 105 61 33 -24 31 -44 19 -47 rlinecurve
          15 -10 -44 11 -28 hhcurveto
          -137 -74 -76 -144 hvcurveto
          91 hmoveto
          148 29 47 91 85 35 -55 -140 -137 -32 -58 -88 -87 -33 48 147 vhcurveto
          endchar
        </CharString>
        <CharString name="exclam">
          -232 -10 115 532 -20 hstemhm
          90 63 callsubr
          90 48 rmoveto
          -32 31 -26 33 35 30 26 31 32 -28 26 -36 -36 -29 -25 -32 vhcurveto
          hintmask 11010000
          15 540 rmoveto
          -18 2 -23 4 -27 vhcurveto
          13 -92 rlineto
          hintmask 11001000
          9 -65 10 -74 -72 vvcurveto
          -11 4 -5 8 7 4 5 11 72 10 74 9 65 vhcurveto
          13 92 rlineto
          hintmask 11010000
          4 27 2 23 18 vvcurveto
          31 -18 18 -32 -31 -18 -18 -31 vhcurveto
          endchar
        </CharString>
        <CharString name="exclamdown">
          -232 -221 -21 572 115 hstemhm
          50 63 callsubr
          50 387 rmoveto
          -32 29 -25 36 36 28 26 32 31 -30 26 -35 -33 -31 -26 -32 vhcurveto
          hintmask 11010000
          15 -580 rmoveto
          -31 18 -18 31 32 18 18 31 33 -6 54 -13 72 vhcurveto
          hintmask 11001000
          -13 95 -6 111 46 vvcurveto
          11 -4 5 -7 -8 -4 -5 -11 -46 -6 -111 -13 -95 vhcurveto
          hintmask 11010000
          -13 -72 -6 -54 -33 vvcurveto
          endchar
        </CharString>
        <CharString name="f">
          -205 0 25 370 25 204 112 -25 25 hstemhm
          85 86 131 69 hintmask 11011100
          250 hmoveto
          26 vlineto
          -66 -96 callsubr
          352 106 25 -107 29 vlineto
          45 -6 50 53 vvcurveto
          91 47 23 41 39 11 -13 -15 vhcurveto
          -9 -7 -4 -20 vvcurveto
          hintmask 11101100
          -17 21 -9 15 19 21 8 25 28 -12 21 -23 13 vhcurveto
          11 -21 -25 6 -30 hhcurveto
          -14 hlineto
          -64 -51 -28 -59 -25 hvcurveto
          -15 -35 -6 -60 -68 vvcurveto
          -66 -39 -25 39 -352 vlineto
          -13 6 -6 -9 vhcurveto
          -47 -9 callsubr
        </CharString>
        <CharString name="five">
          -61 -9 25 -25 156 163 33 129 65 3 -20 hstemhm
          42 79 188 86 hintmask 10110110
          42 93 rmoveto
          -83 93 -19 68 105 87 66 112 115 -72 59 -103 -43 -50 -18 -24 -31 vhcurveto
          15 45 callsubr
          177 hlineto
          20 9 -17 -11 -13 -1 -10 -1 -7 hvcurveto
          26 hlineto
          hintmask 10101110
          5 39 15 54 16 33 rrcurveto
          hintmask 10110110
          -1 -11 -15 -2 -43 hhcurveto
          -224 hlineto
          -19 -277 rlineto
          -1 1 2 0 2 hhcurveto
          10 hlineto
          4 hlineto
          1 0 0 1 1 hvcurveto
          28 17 47 22 39 hhcurveto
          80 40 -53 -88 -93 -25 -60 -81 -39 -43 18 43 hvcurveto
          11 8 5 19 vvcurveto
          hintmask 01110110
          24 -19 11 -23 -24 -21 -19 -35 vhcurveto
          endchar
        </CharString>
        <CharString name="florin">
          -195 -188 26 -26 73 504 31 168 75 -27 27 hstemhm
          hintmask 10101000
          -119 -163 rmoveto
          -19 22 -6 60 126 69 164 111 24 vhcurveto
          63 302 rlineto
          76 hlineto
          29 16 rlineto
          15 -99 vlineto
          42 4 35 174 69 hhcurveto
          hintmask 10110000
          49 -32 -48 48 hhcurveto
          19 13 13 25 34 -57 3 -36 -115 -53 -109 -64 -16 hvcurveto
          -19 -70 rlineto
          -74 hlineto
          -27 -31 rlineto
          94 hlineto
          -41 -205 -32 -169 -14 -64 -20 -44 rlinecurve
          -40 -19 -17 -29 -37 hhcurveto
          hintmask 01110000
          -38 9 47 -29 hhcurveto
          -15 -19 -21 -27 hvcurveto
          endchar
        </CharString>
        <CharString name="four">
          -60 0 22 116 64 342 -20 hstem
          249 79 vstem
          249 138 rmoveto
          -98 vlineto
          -12 -5 -6 -11 vhcurveto
          -58 1 rlineto
          -23 207 23 vlineto
          -38 -1 rlineto
          -11 -5 6 12 hvcurveto
          98 67 64 -67 342 -30 vlineto
          -18 -25 -14 -20 -202 -250 -25 -28 -9 -11 -9 -9 -8 -7 rlinecurve
          -56 vlineto
          236 297 rmoveto
          -233 -187 vlineto
          endchar
        </CharString>
        <CharString name="g">
          -41 -245 26 219 65 66 23 249 27 -6 81 -58 58 hstemhm
          32 49 -36 36 -36 68 -56 89 163 89 -89 158 -80 66 hintmask 1111011000001000
          32 -112 rmoveto
          -87 66 -46 117 144 94 67 104 103 -54 36 -95 vhcurveto
          -133 hlineto
          hintmask 1111010010100000
          -39 -19 12 25 17 16 14 23 12 hvcurveto
          -7 17 34 -7 24 hhcurveto
          104 67 61 88 64 -23 44 -51 21 hvcurveto
          24 19 37 14 10 hhcurveto
          hintmask 1110101000010000
          19 -6 -23 32 hhcurveto
          20 12 21 16 18 -9 26 -37 -27 -57 -42 -45 -34 hvcurveto
          hintmask 1111010001100000
          8 -25 -18 4 -33 hhcurveto
          -100 -70 -61 -89 -55 26 -47 40 -19 hvcurveto
          hintmask 1111010100100000
          -16 -24 -62 -13 -40 vvcurveto
          -55 37 -11 40 -11 vhcurveto
          hintmask 1111011000001000
          -57 -27 -33 -34 -56 vvcurveto
          49 2 rmoveto
          59 66 51 53 vhcurveto
          89 hlineto
          68 30 -26 -55 -81 -60 -57 -113 -91 -42 46 63 hvcurveto
          hintmask 1111010001100000
          65 390 rmoveto
          93 20 30 61 63 19 -35 -88 -89 -18 -37 -64 -64 -17 31 95 vhcurveto
          endchar
        </CharString>
        <CharString name="germandbls">
          27 -8 29 -29 109 -80 -21 712 25 hstemhm
          84 71 -71 86 40 79 70 79 12 79 hintmask 0011011110000000
          230 35 callsubr
          -46 -2 rlineto
          -9 -5 10 11 hvcurveto
          386 vlineto
          19 -1 15 -4 32 vhcurveto
          hintmask 1001101110000000
          -8 64 -2 30 7 vvcurveto
          69 42 42 61 64 37 -41 -59 -55 -23 -26 -45 -31 vhcurveto
          -65 -46 -16 -24 -44 vvcurveto
          -39 34 -33 45 -33 vhcurveto
          86 -62 rlineto
          48 -35 27 -42 -43 vvcurveto
          -56 -33 -22 -47 vhcurveto
          hintmask 0101101110000000
          -70 42 80 -59 hhcurveto
          -19 -14 -9 -29 -44 55 -27 43 103 78 52 95 56 -33 43 -56 39 hvcurveto
          -87 63 rlineto
          -39 27 -25 29 31 vvcurveto
          43 19 18 36 21 vhcurveto
          51 29 43 31 53 vvcurveto
          71 -72 44 -109 -113 -60 -68 -157 vhcurveto
          -464 vlineto
          -12 -4 -9 -9 vhcurveto
          -36 2 rlineto
          hintmask 0011101110000000
          -29 vlineto
          endchar
        </CharString>
        <CharString name="grave">
          16 514 -21 160 -20 hstem
          183 -58 callsubr
          endchar
        </CharString>
        <CharString name="greater">
          64 callsubr
          207 rmoveto
          24 vlineto
          -352 211 rlineto
          -49 vlineto
          256 -154 43 -21 -43 -20 -256 -155 rlineto
          -48 vlineto
          endchar
        </CharString>
        <CharString name="guillemotleft">
          -44 -30 callsubr
          316 -171 rmoveto
          35 hlineto
          -97 171 97 45 callsubr
          -35 hlineto
          -149 72 callsubr
          endchar
        </CharString>
        <CharString name="guillemotright">
          -44 26 callsubr
          94 16 rmoveto
          -2 callsubr
          208 hmoveto
          -2 callsubr
          endchar
        </CharString>
        <CharString name="guilsinglleft">
          -275 -30 callsubr
          endchar
        </CharString>
        <CharString name="guilsinglright">
          -276 26 callsubr
          51 16 rmoveto
          149 171 -149 30 callsubr
          98 -171 -98 72 callsubr
          endchar
        </CharString>
        <CharString name="h">
          24 0 25 373 32 300 -20 -78 callsubr
          399 -136 -25 vlineto
          71 callsubr
          9 4 -7 -14 hvcurveto
          -643 -45 callsubr
        </CharString>
        <CharString name="hyphen">
          0 callsubr
        </CharString>
        <CharString name="i">
          43 callsubr
          560 95 hstemhm
          67 104 -63 callsubr
          hintmask 11100000
          32 633 rmoveto
          -31 23 -17 31 32 23 17 31 29 -23 18 -32 -31 -23 -18 -29 vhcurveto
          endchar
        </CharString>
        <CharString name="iacute">
          43 callsubr
          638 -20 hstemhm
          36 135 -63 callsubr
          9 511 -107 callsubr
        </CharString>
        <CharString name="icircumflex">
          43 callsubr
          609 50 callsubr
          -28 -47 callsubr
          -23 24 -24 24 rlineto
          15 -16 75 callsubr
          -16 hvcurveto
          -24 -24 -23 79 callsubr
          248 -486 -83 callsubr
          endchar
        </CharString>
        <CharString name="idieresis">
          43 callsubr
          495 97 hstemhm
          -24 108 1 86 0 108 hintmask 11110000
          -24 568 rmoveto
          -105 callsubr
          244 -568 -83 callsubr
          136 568 rmoveto
          -29 23 -19 31 vhcurveto
          hintmask 11101000
          -101 callsubr
          hvcurveto
          endchar
        </CharString>
        <CharString name="igrave">
          43 callsubr
          628 50 callsubr
          15 -58 callsubr
          205 -627 -83 callsubr
          endchar
        </CharString>
        <CharString name="j">
          -250 -243 27 801 95 hstemhm
          -58 229 -102 102 -86 86 hintmask 11100000
          -58 -212 rmoveto
          -25 19 -6 67 93 50 74 165 vhcurveto
          424 -140 -26 vlineto
          41 2 rlineto
          hintmask 11001000
          9 4 -9 -11 hvcurveto
          -435 vlineto
          -26 2 -43 -5 vvcurveto
          -55 -18 -28 -35 -19 -10 12 12 -9 vhcurveto
          -13 16 rlineto
          5 -4 -5 2 -7 hhcurveto
          hintmask 11100000
          -15 -10 -14 -29 hvcurveto
          hintmask 11010000
          127 845 rmoveto
          -31 22 -17 32 31 24 17 31 29 -24 18 -31 -32 -22 -18 -29 vhcurveto
          endchar
        </CharString>
        <CharString name="k">
          10 0 25 371 24 310 50 callsubr
          230 hmoveto
          26 vlineto
          -46 -96 callsubr
          159 vlineto
          33 28 139 -192 5 -7 -2 -8 -12 1 rlinecurve
          -45 2 rlineto
          -26 215 26 vlineto
          -36 -2 rlineto
          -8 -11 7 11 -8 hvcurveto
          -175 241 117 100 rlineto
          9 10 10 5 11 hhcurveto
          36 -2 rlineto
          25 -162 -25 vlineto
          43 2 12 1 -2 -14 -7 -7 rlinecurve
          -163 -140 rlineto
          493 -135 -25 vlineto
          71 callsubr
          8 4 -7 -14 hvcurveto
          -643 -45 callsubr
        </CharString>
        <CharString name="l">
          43 callsubr
          706 50 callsubr
          220 hmoveto
          26 vlineto
          -36 -96 callsubr
          688 -135 -25 vlineto
          71 callsubr
          8 -3 4 -7 -11 vvcurveto
          -644 -45 callsubr
        </CharString>
        <CharString name="less">
          64 callsubr
          -5 rmoveto
          49 vlineto
          -257 154 -43 21 43 20 257 155 rlineto
          48 vlineto
          -352 -212 rlineto
          -24 vlineto
          endchar
        </CharString>
        <CharString name="logicalnot">
          -41 167 -21 173 41 hstem
          397 43 vstem
          397 319 rmoveto
          -173 43 214 -420 -41 vlineto
          endchar
        </CharString>
        <CharString name="m">
          300 0 25 372 33 85 callsubr
          194 86 194 86 cntrmask 00111000
          230 hmoveto
          26 vlineto
          -46 -96 callsubr
          167 vlineto
          108 49 79 74 60 11 -26 -99 vhcurveto
          -229 -48 callsubr
          -46 2 rlineto
          -26 205 26 vlineto
          -47 56 callsubr
          115 53 75 74 -81 callsubr
          -58 -39 -75 -23 vhcurveto
          83 -5 -49 31 -76 hhcurveto
          -77 -50 -46 -56 -19 hvcurveto
          1 58 rlineto
          14 2 11 3 9 vhcurveto
          -142 -26 hlineto
          71 callsubr
          8 5 -9 -11 hvcurveto
          -333 -45 callsubr
        </CharString>
        <CharString name="middot">
          -271 127 115 hstem
          50 130 vstem
          50 184 rmoveto
          -91 callsubr
          endchar
        </CharString>
        <CharString name="multiply">
          -41 123 -21 331 -20 hstem
          94 103 rmoveto
          136 136 138 -137 28 28 -137 138 137 136 -30 29 -137 -137 -134 136 -29 -29 136 -135 -138 -137 rlineto
          endchar
        </CharString>
        <CharString name="n">
          24 0 25 373 32 -78 callsubr
          54 vlineto
          15 2 11 3 9 vhcurveto
          -141 -26 hlineto
          71 callsubr
          9 -2 4 -7 -11 vvcurveto
          -333 -45 callsubr
        </CharString>
        <CharString name="nine">
          -71 -10 27 -27 134 55 22 327 21 hstemhm
          40 86 -62 81 158 85 hintmask 10111010
          40 364 rmoveto
          -117 63 -68 108 39 32 18 28 19 vhcurveto
          -115 -5 -31 -93 -72 hhcurveto
          hintmask 01110110
          -32 -16 22 19 hvcurveto
          8 5 13 11 vvcurveto
          23 -16 11 -25 -25 -20 -16 -31 -55 41 -32 76 168 39 159 155 133 -35 112 -142 vhcurveto
          hintmask 10111010
          -100 -71 -78 -107 hvcurveto
          86 hmoveto
          108 22 56 63 64 28 -81 -83 -85 -7 -78 -85 -73 -12 96 67 vhcurveto
          endchar
        </CharString>
        <CharString name="ntilde">
          24 62 0 110 196 endchar
        </CharString>
        <CharString name="numbersign">
          4 -9 243 -40 40 171 40 -40 234 hstemhm
          hintmask 01100000
          117 194 rmoveto
          21 callsubr
          114 hlineto
          21 callsubr
          101 hlineto
          12 40 rlineto
          -101 hlineto
          51 45 callsubr
          102 hlineto
          11 40 rlineto
          -101 hlineto
          hintmask 10010000
          58 46 callsubr
          -114 hlineto
          hintmask 10010000
          59 46 callsubr
          -100 hlineto
          -11 -40 rlineto
          100 hlineto
          -52 72 callsubr
          -99 hlineto
          hintmask 01100000
          -11 -40 rlineto
          202 211 rmoveto
          114 hlineto
          -51 72 callsubr
          -115 hlineto
          endchar
        </CharString>
        <CharString name="o">
          -29 -10 4 callsubr
          -71 callsubr
          endchar
        </CharString>
        <CharString name="oacute">
          -29 -10 4 callsubr
          233 -20 -71 callsubr
          17 302 -107 callsubr
        </CharString>
        <CharString name="ocircumflex">
          -29 31 0 111 53 callsubr
        </CharString>
        <CharString name="odieresis">
          -29 7 0 111 200 endchar
        </CharString>
        <CharString name="oe">
          260 -10 33 194 25 161 27 hstem
          35 91 219 87 209 85 vstem
          35 202 rmoveto
          -123 70 -89 123 86 37 18 56 40 vhcurveto
          -53 43 51 -21 71 hhcurveto
          81 63 43 60 23 hvcurveto
          -23 17 rlineto
          -40 -13 -60 -47 -59 hhcurveto
          -88 -48 71 123 hvcurveto
          294 22 hlineto
          120 -66 71 -109 -84 -41 -23 -51 -35 vhcurveto
          49 -30 -55 25 -79 hhcurveto
          -139 -53 -104 -124 hvcurveto
          91 1 rmoveto
          137 30 63 71 88 30 -47 -149 -121 -18 -69 -99 -80 -22 84 102 vhcurveto
          306 39 rmoveto
          116 43 45 71 68 27 -42 -104 -7 -3 -8 -9 vhcurveto
          endchar
        </CharString>
        <CharString name="ograve">
          -29 -47 0 111 54 callsubr
        </CharString>
        <CharString name="one">
          -173 0 22 533 -20 hstem
          140 79 vstem
          69 431 rmoveto
          55 27 rlineto
          9 5 7 -8 -11 vvcurveto
          -404 vlineto
          -12 -5 -6 -11 vhcurveto
          -49 1 rlineto
          -23 207 23 vlineto
          -48 -1 rlineto
          -10 -5 6 12 hvcurveto
          515 -15 vlineto
          -12 -13 -13 -12 -15 -12 -25 -20 -35 -24 -43 -13 rrcurveto
          endchar
        </CharString>
        <CharString name="onehalf">
          79 -60 38 -27 -21 201 88 464 -20 hstemhm
          107 59 220 65 62 63 hintmask 01111110
          -77 callsubr
          hintmask 10111110
          475 -464 rmoveto
          25 hlineto
          10 callsubr
          48 callsubr
          16 13 44 37 rcurveline
          29 -16 callsubr
          -3 7 rlineto
          -2 -14 callsubr
        </CharString>
        <CharString name="onequarter">
          79 -60 107 -96 -21 79 38 636 -20 hstemhm
          107 59 318 60 hintmask 01111100
          -77 callsubr
          431 -395 rmoveto
          -34 -37 callsubr
          hintmask 10011100
          -11 callsubr
          -78 -97 -44 73 callsubr
          hintmask 01111100
          40 callsubr
        </CharString>
        <CharString name="ordfeminine">
          -239 342 31 109 23 24 86 -23 23 hstemhm
          11 62 93 60 hintmask 11101100
          411 vmoveto
          -46 28 -23 56 43 28 18 37 15 vhcurveto
          -3 -47 rlineto
          95 24 hlineto
          -30 -1 rlineto
          -4 -2 2 5 hvcurveto
          147 vlineto
          61 -35 27 -77 -69 -34 -21 -33 -21 11 -11 21 20 10 10 19 vhcurveto
          hintmask 11011100
          27 2 7 39 35 17 -17 -33 vhcurveto
          -37 vlineto
          -116 -50 -30 -64 hvcurveto
          63 5 rmoveto
          45 31 21 72 vhcurveto
          -25 vlineto
          -47 -30 -37 -35 -23 -15 14 29 vhcurveto
          endchar
        </CharString>
        <CharString name="ordmasculine">
          -150 344 24 226 24 hstem
          44 71 121 71 vstem
          44 480 rmoveto
          -76 42 -60 89 84 48 51 85 89 -52 49 -80 -81 -50 -51 -87 vhcurveto
          71 hmoveto
          81 12 33 48 48 13 -29 -85 -92 -17 -20 -44 -51 -9 33 79 vhcurveto
          endchar
        </CharString>
        <CharString name="oslash">
          -29 -64 -21 75 4 callsubr
          74 -20 hstem
          84 callsubr
          91 vstem
          35 211 rmoveto
          -88 27 -65 56 -37 vhcurveto
          -50 -89 38 -17 49 88 rlineto
          -9 25 27 -4 29 hhcurveto
          135 66 86 135 77 -23 60 -45 39 hvcurveto
          53 96 -34 21 -53 -95 rlineto
          13 -28 -32 8 -39 hhcurveto
          -135 -66 -87 -132 hvcurveto
          -6 callsubr
          34 25 -11 -23 17 vhcurveto
          -166 -297 rlineto
          -13 31 -7 45 61 vvcurveto
          208 115 rmoveto
          8 -29 4 -39 -47 vvcurveto
          -133 -30 -59 -80 -27 -21 6 13 -15 vhcurveto
          endchar
        </CharString>
        <CharString name="otilde">
          -29 -10 4 callsubr
          94 24 callsubr
          84 callsubr
          33 -33 91 hintmask 11010101
          -90 callsubr
          -13 316 -50 callsubr
        </CharString>
        <CharString name="overscore">
          -54 567 40 hstem
          343 567 rmoveto
          40 -239 -40 vlineto
          endchar
        </CharString>
        <CharString name="p">
          -7 -239 25 204 4 callsubr
          hstem
          69 86 213 91 vstem
          56 -26 callsubr
          -571 -65 callsubr
          29 33 callsubr
          -168 -18 callsubr
        </CharString>
        <CharString name="paragraph">
          -2 -248 -21 835 31 hstemhm
          30 233 -35 35 79 35 hintmask 11101000
          30 442 rmoveto
          hintmask 11011000
          -99 74 -55 124 vhcurveto
          -557 35 797 vlineto
          27 15 11 23 vhcurveto
          41 -835 35 835 101 31 -250 hlineto
          hintmask 11101000
          -124 -74 -60 -95 hvcurveto
          endchar
        </CharString>
        <CharString name="parenleft">
          65 callsubr
          18 94 vstem
          18 240 rmoveto
          -177 78 -158 115 -136 vhcurveto
          43 hlineto
          -91 115 -51 222 134 vvcurveto
          134 51 222 91 115 vhcurveto
          -43 hlineto
          -115 -136 -78 -158 -177 vvcurveto
          endchar
        </CharString>
        <CharString name="parenright">
          65 callsubr
          142 94 vstem
          43 -231 rmoveto
          115 136 78 158 177 vvcurveto
          177 -78 158 -115 136 vhcurveto
          -43 hlineto
          91 -115 51 -222 -134 vvcurveto
          -134 -51 -222 -91 -115 vhcurveto
          endchar
        </CharString>
        <CharString name="percent">
          47 -56 -21 757 -20 hstem
          30 60 callsubr
          25 60 callsubr
          vstem
          36 -77 rmoveto
          512 721 -37 22 -511 -718 rlineto
          30 590 rmoveto
          -100 callsubr
          206 -464 rmoveto
          -100 callsubr
          endchar
        </CharString>
        <CharString name="period">
          -251 -10 115 hstem
          60 -56 callsubr
          endchar
        </CharString>
        <CharString name="perthousand">
          326 -49 -21 750 -20 hstem
          30 60 callsubr
          10 60 callsubr
          40 60 callsubr
          vstem
          33 -70 -39 callsubr
          30 585 rmoveto
          -100 callsubr
          191 -464 rmoveto
          -100 callsubr
          221 hmoveto
          -100 callsubr
          endchar
        </CharString>
        <CharString name="plus">
          -41 94 -21 186 44 185 -20 hstem
          206 49 vstem
          206 259 rmoveto
          -186 49 186 185 44 -185 185 -49 -185 -186 -44 vlineto
          endchar
        </CharString>
        <CharString name="plusminus">
          -41 0 41 233 41 191 -20 hstem
          207 45 vstem
          440 hmoveto
          41 -420 -41 vlineto
          187 274 rmoveto
          -194 45 194 188 41 -188 191 -45 -191 -187 -41 vlineto
          endchar
        </CharString>
        <CharString name="q">
          -11 -239 26 203 4 callsubr
          hstemhm
          35 92 212 86 -33 33 hintmask 11111000
          44 callsubr
          -172 68 -47 119 64 40 35 37 13 vhcurveto
          -257 vlineto
          -12 -3 callsubr
          -1 vhcurveto
          -56 1 rlineto
          -26 200 26 vlineto
          -32 -1 rlineto
          -9 -1 -4 7 13 vvcurveto
          615 vlineto
          hintmask 11110100
          -33 hlineto
          -47 -14 -12 -17 -11 -6 10 4 -3 vhcurveto
          40 -29 -32 15 -56 hhcurveto
          -129 -60 31 callsubr
          hmoveto
          141 31 53 73 87 19 -105 -72 vhcurveto
          -41 vlineto
          -61 -27 -107 -83 -63 -37 24 168 vhcurveto
          endchar
        </CharString>
        <CharString name="question">
          -101 -10 115 462 103 -23 23 hstemhm
          36 77 9 73 -73 136 29 90 hintmask 11011010
          36 606 rmoveto
          -21 22 -18 29 12 14 15 11 vhcurveto
          hintmask 10111010
          35 33 19 63 48 30 -30 -56 vhcurveto
          -66 -165 -89 -83 vvcurveto
          -43 71 -53 37 -8 vhcurveto
          12 19 rlineto
          -35 20 -12 23 35 82 182 56 96 vvcurveto
          77 -61 43 -116 -85 -79 -35 -29 vhcurveto
          92 -562 rmoveto
          -36 35 -18 32 vhcurveto
          hintmask 11010110
          32 31 22 35 39 -31 19 -36 -33 -30 -26 -35 hvcurveto
          endchar
        </CharString>
        <CharString name="questiondown">
          -101 -235 23 -23 103 462 115 hstemhm
          36 90 29 136 -73 73 9 77 hintmask 01111010
          36 -115 rmoveto
          -77 61 -43 116 85 79 35 29 21 -22 18 -29 -12 -14 -15 -11 vhcurveto
          hintmask 10110110
          -35 -33 -19 -63 -48 -30 30 56 vhcurveto
          65 165 91 82 vvcurveto
          43 -71 53 -37 8 vhcurveto
          -12 -19 rlineto
          35 -20 12 -23 -35 -83 -182 -55 -96 vvcurveto
          hintmask 10111010
          119 503 rmoveto
          -39 31 -19 36 33 30 26 35 vhcurveto
          hintmask 10110110
          36 -35 18 -32 vhcurveto
          hintmask 10111010
          -32 -31 -22 -35 hvcurveto
          endchar
        </CharString>
        <CharString name="quotedbl">
          -249 409 231 hstem
          54 426 -57 callsubr
          138 -174 -57 callsubr
          endchar
        </CharString>
        <CharString name="quotedblbase">
          -39 25 callsubr
          hstemhm
          103 14 callsubr
          52 14 callsubr
          hintmask 11101000
          121 -160 -93 callsubr
          hintmask 11011000
          -67 callsubr
          199 -44 callsubr
        </CharString>
        <CharString name="quotedblleft">
          -115 76 callsubr
          60 -60 128 38 60 -60 128 hintmask 11011000
          46 477 rmoveto
          -33 callsubr
          hintmask 11010100
          -46 callsubr
          166 hmoveto
          -33 callsubr
          hintmask 11100100
          -46 callsubr
          endchar
        </CharString>
        <CharString name="quotedblright">
          -115 400 -21 155 96 hstemhm
          61 14 callsubr
          38 14 callsubr
          hintmask 11101000
          79 379 -93 callsubr
          hintmask 11011000
          -67 callsubr
          185 -44 callsubr
        </CharString>
        <CharString name="quoteleft">
          -281 76 callsubr
          128 vstemhm
          46 477 rmoveto
          -33 callsubr
          hintmask 11100000
          -46 callsubr
          endchar
        </CharString>
        <CharString name="quoteright">
          -281 400 -21 155 96 hstemhm
          65 14 callsubr
          hintmask 11100000
          83 379 -73 callsubr
        </CharString>
        <CharString name="quotesinglbase">
          -237 25 callsubr
          hstemhm
          103 14 callsubr
          hintmask 11100000
          121 -160 -73 callsubr
        </CharString>
        <CharString name="quotesingle">
          -368 430 -21 231 -20 hstem
          54 426 -57 callsubr
          endchar
        </CharString>
        <CharString name="r">
          -118 0 25 299 106 -38 38 hstemhm
          84 86 123 76 hintmask 10111000
          71 -26 callsubr
          -333 vlineto
          -13 -3 callsubr
          vhcurveto
          -32 2 rlineto
          -26 205 26 vlineto
          -61 56 callsubr
          69 33 115 62 23 5 -9 -8 vhcurveto
          -11 -4 -5 -9 vvcurveto
          hintmask 11011000
          -21 25 -5 16 26 13 15 31 37 -26 23 -49 -47 -46 -28 -76 -31 vhcurveto
          48 vlineto
          16 3 22 3 8 vhcurveto
          -141 -26 hlineto
          endchar
        </CharString>
        <CharString name="registered">
          172 -11 30 -30 144 -15 173 -19 184 -18 122 -30 30 hstemhm
          56 32 156 56 116 55 122 34 hintmask 1010011111000000
          -79 callsubr
          251 -156 rmoveto
          16 -24 vlineto
          -10 4 -5 10 rlineto
          hintmask 1001011111000000
          124 vlineto
          63 3 -11 -61 27 hvcurveto
          21 -46 rlineto
          hintmask 1010101111000000
          -35 15 8 -1 26 hhcurveto
          47 hlineto
          hintmask 0101011111000000
          15 vlineto
          -22 1 -11 70 -35 hvcurveto
          -34 64 -10 15 -13 9 -16 2 rlinecurve
          56 7 34 37 45 vvcurveto
          56 -40 29 -68 vhcurveto
          -159 hlineto
          hintmask 0100101111000000
          -18 vlineto
          33 7 -7 -17 hvcurveto
          -256 vlineto
          -28 -9 3 -31 vhcurveto
          hintmask 1010101111000000
          -15 vlineto
          96 291 rmoveto
          27 8 0 31 51 26 -24 -49 -48 -30 -24 -60 vhcurveto
          -26 hlineto
          endchar
        </CharString>
        <CharString name="s">
          -90 -10 4 callsubr
          55 callsubr
          hintmask 11011000
          -64 callsubr
          hintmask 11100100
          -59 callsubr
          hintmask 11101000
          6 callsubr
          -5 -132 rlineto
          endchar
        </CharString>
        <CharString name="scaron">
          -90 -10 4 callsubr
          254 -20 55 callsubr
          hintmask 11101100
          -64 callsubr
          hintmask 11110010
          -59 callsubr
          hintmask 11110100
          6 callsubr
          rlineto
          534 vmoveto
          28 callsubr
          24 49 callsubr
          15 -5 callsubr
          15 hvcurveto
          24 24 24 24 rlineto
          -87 callsubr
        </CharString>
        <CharString name="section">
          -64 -137 25 -25 151 444 149 -23 23 hstemhm
          35 65 -44 74 -74 94 142 88 -74 74 -41 68 hintmask 1010100010000000
          35 254 rmoveto
          -43 29 -42 59 -40 vhcurveto
          124 -86 rlineto
          48 -35 11 -12 -36 vvcurveto
          -43 -40 -29 -51 vhcurveto
          hintmask 1010010100000000
          -44 -41 18 19 hvcurveto
          hintmask 0110001100000000
          27 20 5 21 vvcurveto
          23 -19 13 -24 -28 -23 -28 -27 -60 62 -36 88 100 74 56 76 48 -18 30 -44 33 vhcurveto
          hintmask 1001100001000000
          59 21 30 37 53 vvcurveto
          43 -31 44 -57 39 vhcurveto
          -124 85 rlineto
          -47 32 -11 11 40 vvcurveto
          45 42 28 47 41 45 -19 -19 vhcurveto
          hintmask 1010100100000000
          -24 -20 -18 -11 vvcurveto
          -21 19 -14 24 29 22 25 28 63 -62 33 -88 -104 -70 -53 -77 -50 11 -25 51 -37 vhcurveto
          -64 -25 -25 -31 -55 vvcurveto
          65 48 rmoveto
          23 16 15 32 8 vhcurveto
          151 -103 rlineto
          hintmask 1010100001000000
          27 -19 13 -23 -29 vvcurveto
          -29 -12 -13 -33 -8 vhcurveto
          -150 103 rlineto
          -29 19 -15 25 31 vvcurveto
          endchar
        </CharString>
        <CharString name="semicolon">
          -251 25 callsubr
          197 115 hstemhm
          49 130 -106 14 callsubr
          hintmask 11110000
          49 345 rmoveto
          -91 callsubr
          42 -505 rmoveto
          hintmask 11101000
          -95 callsubr
          hintmask 11100100
          -67 callsubr
          endchar
        </CharString>
        <CharString name="seven">
          -124 21 -21 472 65 3 -20 hstemhm
          127 85 hintmask 11010000
          54 388 rmoveto
          61 7 26 23 59 hhcurveto
          168 hlineto
          -132 -153 -55 -126 -120 vvcurveto
          -25 3 -25 5 -23 vhcurveto
          80 hlineto
          -2 34 rlineto
          -1 11 0 11 9 vvcurveto
          157 73 200 109 115 vhcurveto
          -248 hlineto
          hintmask 10110000
          -53 -39 0 3 -11 hvcurveto
          -24 -12 -83 -8 -45 vhcurveto
          endchar
        </CharString>
        <CharString name="six">
          -71 -10 21 327 22 55 134 -27 27 hstemhm
          42 87 156 81 -62 86 hintmask 11011010
          42 235 rmoveto
          -133 35 -112 142 100 71 78 107 117 -63 68 -108 -39 -32 -18 -28 -19 vhcurveto
          115 5 31 93 72 hhcurveto
          hintmask 11101100
          32 16 -22 -19 hvcurveto
          -8 -5 -13 -11 vvcurveto
          -23 16 -11 25 25 20 16 31 55 -41 32 -76 -168 -39 -159 -155 vhcurveto
          85 -60 rmoveto
          85 7 78 85 vhcurveto
          hintmask 11101010
          73 12 -96 -67 -108 -22 -56 -63 -64 -28 81 83 hvcurveto
          endchar
        </CharString>
        <CharString name="slash">
          -254 16 -21 640 -20 hstem
          34 -5 rmoveto
          218 631 -38 9 -219 -629 rlineto
          endchar
        </CharString>
        <CharString name="space">
          -281 endchar
        </CharString>
        <CharString name="sterling">
          6 0 73 -55 -21 309 23 151 127 -23 23 hstemhm
          116 79 -79 96 131 74 22 20 hintmask 0111010110000000
          21 -3 rmoveto
          hintmask 1011010110000000
          9 57 3 33 hhcurveto
          256 hlineto
          hintmask 0111010110000000
          -1 36 25 -2 17 hhcurveto
          10 45 callsubr
          -25 hlineto
          hintmask 1011001110000000
          -74 -26 -21 -105 vhcurveto
          -178 hlineto
          37 21 45 78 54 vvcurveto
          80 119 23 -120 vlineto
          7 0 9 -1 11 vhcurveto
          -4 40 -1 15 -2 15 -2 16 rlinecurve
          hintmask 1010110110000000
          -6 45 rlineto
          60 38 37 53 38 19 -12 -25 vhcurveto
          -4 -16 rlineto
          -3 -8 -1 -8 -1 vvcurveto
          hintmask 0111010110000000
          -19 21 -15 20 21 20 19 21 49 -54 38 -71 -125 -51 -60 -137 vhcurveto
          -81 -80 -23 80 -150 vlineto
          -65 -38 -62 -57 -32 vhcurveto
          endchar
        </CharString>
        <CharString name="t">
          -188 -6 29 372 25 102 50 callsubr
          85 395 rmoveto
          -299 vlineto
          -72 26 -30 68 61 32 20 36 13 vhcurveto
          -21 13 rlineto
          -23 -7 -26 -17 -19 hhcurveto
          -31 -10 14 51 hvcurveto
          307 110 25 -110 102 -28 vlineto
          -88 -21 -22 -14 -75 hhcurveto
          -25 vlineto
          endchar
        </CharString>
        <CharString name="thorn">
          15 -239 25 204 4 callsubr
          300 -20 hstem
          69 86 213 91 vstem
          56 706 -25 callsubr
          -881 -65 callsubr
          339 33 callsubr
          -478 -18 callsubr
        </CharString>
        <CharString name="three">
          -61 -9 26 -26 158 249 151 -24 24 hstemhm
          41 74 -74 86 159 87 -55 55 -55 86 hintmask 1010100010000000
          30 93 rmoveto
          -61 60 -41 121 104 89 67 88 93 -75 47 -141 vhcurveto
          hintmask 1010011000000000
          96 8 89 66 77 vvcurveto
          64 -72 48 -92 -97 -71 -35 -64 -31 18 -21 27 20 23 14 23 vhcurveto
          7 -2 12 4 vvcurveto
          hintmask 1001101000000000
          40 26 27 56 44 33 -35 -53 -79 -73 -62 -75 vhcurveto
          -23 vlineto
          hintmask 1010100100000000
          124 -12 56 -39 -76 vvcurveto
          -69 -48 -60 -59 -59 -37 28 40 vhcurveto
          9 4 7 11 vvcurveto
          hintmask 0110101000000000
          23 -20 14 -24 -27 -18 -27 -29 vhcurveto
          endchar
        </CharString>
        <CharString name="threequarters">
          79 -60 107 -96 -21 79 38 350 7 callsubr
          248 60 hintmask 1000011100110000
          -1 callsubr
          hintmask 1000011110010000
          -60 callsubr
          hintmask 1001001101010000
          -8 callsubr
          hintmask 0110101110010000
          69 callsubr
          43 -521 -39 callsubr
          446 56 rmoveto
          -34 -37 callsubr
          hintmask 1001001110010000
          -11 callsubr
          -79 -97 -43 73 callsubr
          hintmask 0111001110010000
          40 callsubr
        </CharString>
        <CharString name="tilde">
          -101 524 49 -27 -21 42 49 -1 -20 hstemhm
          hintmask 01100000
          77 525 3 callsubr
          hintmask 10010000
          -72 callsubr
          hintmask 01100000
          -49 callsubr
        </CharString>
        <CharString name="trademark">
          257 283 -21 281 20 hstemhm
          38 155 -52 52 -52 156 82 20 234 49 hintmask 11010110
          57 491 rmoveto
          5 33 3 11 14 7 15 1 rlinecurve
          47 1 rlineto
          -248 vlineto
          -13 -15 -6 -29 vhcurveto
          -15 140 15 vlineto
          -29 -15 8 16 hvcurveto
          243 15 vlineto
          51 18 -8 -45 hvcurveto
          hintmask 11001110
          20 72 hlineto
          hintmask 11100110
          -259 -72 hlineto
          405 -229 rmoveto
          15 vlineto
          -29 -15 8 16 hvcurveto
          230 8 vlineto
          106 -269 rlineto
          8 hlineto
          106 269 rlineto
          6 -226 hlineto
          -23 -11 -5 -27 vhcurveto
          -15 125 15 vlineto
          -24 -14 4 24 hvcurveto
          228 vlineto
          10 2 4 5 6 hhcurveto
          23 15 -96 hlineto
          -90 -222 -93 222 rlineto
          -90 -15 hlineto
          21 10 -4 -8 hvcurveto
          -239 vlineto
          -13 -14 -7 -29 vhcurveto
          -15 vlineto
          endchar
        </CharString>
        <CharString name="two">
          -41 0 65 -46 -21 384 165 -23 23 hstemhm
          63 89 154 87 hintmask 10101100
          319 hmoveto
          45 hlineto
          hintmask 01101100
          12 10 -1 -1 8 hvcurveto
          -1 24 0 43 8 88 rrcurveto
          -26 hlineto
          hintmask 10101100
          -59 -31 -29 -61 vhcurveto
          -168 hlineto
          27 43 40 38 41 36 61 54 rcurveline
          61 51 48 57 64 vvcurveto
          93 -70 46 -111 -100 -49 -61 -50 -35 22 -19 25 21 21 17 23 vhcurveto
          13 -11 14 17 vvcurveto
          hintmask 10011100
          33 28 25 43 55 39 -40 -76 -138 -222 -122 -32 -148 vhcurveto
          endchar
        </CharString>
        <CharString name="u">
          23 -10 27 callsubr
          hstemhm
          69 86 198 87 hintmask 10111000
          -55 callsubr
          hintmask 01111000
          -86 callsubr
          hintmask 10111000
          -54 callsubr
          endchar
        </CharString>
        <CharString name="uacute">
          23 -10 27 callsubr
          243 -20 hstemhm
          69 86 198 87 hintmask 10111100
          -55 callsubr
          hintmask 01111100
          -86 callsubr
          hintmask 10111100
          -54 callsubr
          139 117 -107 callsubr
        </CharString>
        <CharString name="ucircumflex">
          23 57 0 117 53 callsubr
        </CharString>
        <CharString name="udieresis">
          23 -10 27 callsubr
          100 97 hstemhm
          69 86 -59 9 callsubr
          -46 87 hintmask 10111001
          -55 callsubr
          hintmask 01111001
          -86 callsubr
          hintmask 10111010
          -54 callsubr
          hintmask 10110110
          76 174 -106 callsubr
        </CharString>
        <CharString name="ugrave">
          23 -59 0 117 54 callsubr
        </CharString>
        <CharString name="underscore">
          -8 -183 40 hstem
          -183 vmoveto
          493 40 -493 hlineto
          endchar
        </CharString>
        <CharString name="uni00A0">
          -40 endchar
        </CharString>
        <CharString name="uni00AD">
          0 callsubr
        </CharString>
        <CharString name="uni00B2">
          -238 404 38 -19 -21 193 88 hstemhm
          35 65 62 63 hintmask 10111000
          178 404 rmoveto
          25 hlineto
          hintmask 01111000
          10 callsubr
          hintmask 10111000
          48 callsubr
          15 13 46 37 rcurveline
          28 -16 callsubr
          -4 7 rlineto
          -1 -14 callsubr
        </CharString>
        <CharString name="uni00B3">
          -237 397 7 callsubr
          hintmask 00111001
          -1 callsubr
          hintmask 00111100
          -60 callsubr
          hintmask 10011010
          -8 callsubr
          hintmask 01011100
          69 callsubr
          endchar
        </CharString>
        <CharString name="uni00B5">
          52 -269 26 233 27 callsubr
          hstemhm
          69 84 200 87 hintmask 11011100
          8 -269 rmoveto
          205 26 hlineto
          -46 -1 rlineto
          -9 2 -5 6 11 vvcurveto
          235 vlineto
          -12 13 27 -8 19 hhcurveto
          69 49 41 56 23 hvcurveto
          hintmask 10111100
          -86 callsubr
          hintmask 11011100
          -54 callsubr
          36 2 rlineto
          9 4 -6 -13 hvcurveto
          -602 vlineto
          -2 -11 -5 -7 -8 -1 -46 1 rcurveline
          endchar
        </CharString>
        <CharString name="uni00B9">
          -314 425 -21 279 -20 hstem
          67 59 vstem
          170 404 -89 callsubr
          endchar
        </CharString>
        <CharString name="uniE000">
          -81 21 -21 420 -20 hstem
          0 vmoveto
          420 420 -420 hlineto
          endchar
        </CharString>
        <CharString name="v">
          -57 16 -21 400 25 hstem
          20 396 rmoveto
          9 8 -6 -7 3 hvcurveto
          154 -388 rlineto
          27 hlineto
          158 386 rlineto
          11 4 8 4 11 hhcurveto
          33 61 callsubr
          -141 -26 vlineto
          44 2 11 1 0 -10 -3 -7 rlinecurve
          -106 -268 -109 264 rlineto
          11 -4 10 9 9 hhcurveto
          44 61 callsubr
          -203 -26 vlineto
          endchar
        </CharString>
        <CharString name="w">
          224 11 -21 405 25 5 -20 hstemhm
          hintmask 11000000
          33 396 rmoveto
          8 6 -6 -7 3 hvcurveto
          141 -393 rlineto
          20 hlineto
          139 311 133 -311 rlineto
          22 hlineto
          149 389 rlineto
          12 4 9 5 8 hhcurveto
          41 61 callsubr
          -159 -26 vlineto
          53 2 15 1 -1 -10 -3 -8 rlinecurve
          -96 -262 rlineto
          hintmask 10100000
          -132 308 rlineto
          -21 hlineto
          -137 -315 -94 266 -4 11 4 10 15 -1 rlinecurve
          44 -2 rlineto
          hintmask 11000000
          26 -213 -26 vlineto
          endchar
        </CharString>
        <CharString name="x">
          -15 0 25 370 25 hstem
          157 hmoveto
          26 vlineto
          -43 -66 callsubr
          3 7 1 1 2 1 1 hvcurveto
          109 145 101 -146 4 -5 -2 -10 -9 1 rlinecurve
          -49 3 rlineto
          -26 221 26 vlineto
          -44 -2 rlineto
          -7 -6 4 9 -6 hvcurveto
          -141 201 105 143 rlineto
          9 7 11 6 7 hhcurveto
          42 61 callsubr
          -149 -26 vlineto
          43 70 callsubr
          0 -10 -7 -5 hvcurveto
          -89 -118 -86 122 rlineto
          8 -7 8 5 8 hhcurveto
          46 61 callsubr
          -215 -26 82 callsubr
          7 7 -4 -9 5 hvcurveto
          126 -176 -126 -170 rlineto
          -9 -7 -7 -4 -7 hhcurveto
          -43 -9 callsubr
        </CharString>
        <CharString name="y">
          66 callsubr
          hstemhm
          hintmask 10100000
          -21 callsubr
          hintmask 01100000
          -82 callsubr
          endchar
        </CharString>
        <CharString name="yacute">
          -16 74 0 121 194 endchar
        </CharString>
        <CharString name="ydieresis">
          66 callsubr
          100 97 hstemhm
          117 9 callsubr
          hintmask 10111100
          -21 callsubr
          hintmask 01111100
          -82 callsubr
          130 174 -106 callsubr
        </CharString>
        <CharString name="yen">
          6 0 28 174 29 81 29 227 29 hstem
          220 93 vstem
          22 569 rmoveto
          10 1 8 -7 7 -13 126 -209 rcurveline
          -85 -29 102 hlineto
          30 -49 rlineto
          -32 -132 -29 132 -153 13 callsubr
          -13 vhcurveto
          -49 15 callsubr
          229 29 vlineto
          -48 -2 rlineto
          -15 -5 9 12 hvcurveto
          154 132 29 -132 57 vlineto
          13 24 rlineto
          119 29 -102 hlineto
          116 207 9 15 9 7 11 -1 rlinecurve
          -52 callsubr
        </CharString>
        <CharString name="z">
          74 callsubr
          2 -20 hstemhm
          377 21 hintmask 01101000
          34 -2 rmoveto
          hintmask 10101000
          12 41 2 51 -32 callsubr
          hintmask 10011000
          47 callsubr
          hintmask 01101000
          34 callsubr
          -20 vlineto
          endchar
        </CharString>
        <CharString name="zcaron">
          74 callsubr
          264 -20 hstemhm
          377 21 hintmask 01111000
          34 -2 rmoveto
          hintmask 10111000
          11 43 2 50 -32 callsubr
          47 callsubr
          34 callsubr
          hintmask 01111000
          30 658 -74 callsubr
        </CharString>
        <CharString name="zero">
          -39 -9 26 505 23 hstem
          30 88 227 87 vstem
          30 267 rmoveto
          -179 66 -97 135 133 68 93 183 184 -70 94 -131 -129 -72 -91 -187 vhcurveto
          88 1 rmoveto
          191 30 63 83 84 30 -57 -197 -193 -30 -58 -84 -83 -30 54 197 vhcurveto
          endchar
        </CharString>
</ttFont>
